<svg id="Layer_2" data-name="Layer 2" xmlns="http://www.w3.org/2000/svg" width="24" height="24" viewBox="0 0 24 24">
  <g id="message-square">
    <rect id="Rectangle_6" data-name="Rectangle 6" width="24" height="24" fill="#fff" opacity="0"/>
    <circle id="Ellipse_1" data-name="Ellipse 1" cx="1" cy="1" r="1" transform="translate(11 10)" fill="#fff"/>
    <circle id="Ellipse_2" data-name="Ellipse 2" cx="1" cy="1" r="1" transform="translate(15 10)" fill="#fff"/>
    <circle id="Ellipse_3" data-name="Ellipse 3" cx="1" cy="1" r="1" transform="translate(7 10)" fill="#fff"/>
    <path id="Path_6" data-name="Path 6" d="M19,3H5A3,3,0,0,0,2,6V21a1,1,0,0,0,1.51.86L8,19.14A1,1,0,0,1,8.55,19H19a3,3,0,0,0,3-3V6A3,3,0,0,0,19,3Zm1,13a1,1,0,0,1-1,1H8.55A3,3,0,0,0,7,17.43l-3,1.8V6A1,1,0,0,1,5,5H19a1,1,0,0,1,1,1Z" fill="#fff"/>
  </g>
</svg>
