<svg id="Layer_2" data-name="Layer 2" xmlns="http://www.w3.org/2000/svg" width="24" height="24" viewBox="0 0 24 24">
  <g id="npm">
    <rect id="Rectangle_8" data-name="Rectangle 8" width="24" height="24" fill="#fff" opacity="0"/>
    <path id="Path_9" data-name="Path 9" d="M18,21H6a3,3,0,0,1-3-3V6A3,3,0,0,1,6,3H18a3,3,0,0,1,3,3V18A3,3,0,0,1,18,21ZM6,5A1,1,0,0,0,5,6V18a1,1,0,0,0,1,1H18a1,1,0,0,0,1-1V6a1,1,0,0,0-1-1Z" fill="#fff"/>
    <rect id="Rectangle_9" data-name="Rectangle 9" width="4" height="10" transform="translate(12 9)" fill="#fff"/>
  </g>
</svg>
