<svg xmlns="http://www.w3.org/2000/svg" width="511.999" height="490.057" viewBox="0 0 511.999 490.057"><defs><linearGradient id="a" x1=".168" y1=".129" x2="1" y2="1" gradientUnits="objectBoundingBox"><stop offset="0" stop-color="#d8692f"/><stop offset="1" stop-color="#d8692f" stop-opacity=".749"/></linearGradient></defs><g><path d="M452.71 157.937l-133.741-12.4-53.126-123.367a10.717 10.717 0 0 0-19.686 0l-53.126 123.362-133.741 12.405a10.717 10.717 0 0 0-6.084 18.723l100.908 88.646-29.531 131.029a10.718 10.718 0 0 0 15.927 11.572l115.49-68.576 115.49 68.576a10.717 10.717 0 0 0 15.927-11.572l-29.532-131.029 100.909-88.646a10.717 10.717 0 0 0-6.084-18.723z" fill="#d8692f" opacity=".75" transform="translate(0 -10.971)"/><g fill="url(#a)"><path d="M119.278 17.923c6.818 9.47 26.062 50.14 37.064 73.842a3.718 3.718 0 0 1-5.93 4.269c-18.987-17.952-51.452-49.1-58.27-58.575a16.718 16.718 0 0 1 27.136-19.536z" transform="translate(0 -10.971)"/><path d="M392.722 17.923c-6.818 9.47-26.062 50.14-37.064 73.842a3.718 3.718 0 0 0 5.93 4.269c18.987-17.952 51.451-49.1 58.27-58.575a16.718 16.718 0 1 0-27.136-19.536z" transform="translate(0 -10.971)"/><path d="M500.461 295.629c-11.094-3.618-55.689-9.6-81.612-12.875a3.719 3.719 0 0 0-2.266 6.947c22.873 12.635 62.416 34.1 73.51 37.717a16.719 16.719 0 0 0 10.368-31.789z" transform="translate(0 -10.971)"/><path d="M11.539 295.629c11.094-3.618 55.689-9.6 81.612-12.875a3.719 3.719 0 0 1 2.266 6.947c-22.873 12.635-62.417 34.099-73.51 37.717a16.719 16.719 0 0 1-10.368-31.789z" transform="translate(0 -10.971)"/><path d="M239.794 484.31c0-11.669 8.145-55.919 13.065-81.582a3.719 3.719 0 0 1 7.307 0c4.92 25.663 13.065 69.913 13.065 81.582a16.719 16.719 0 0 1-33.437 0z" transform="translate(0 -10.971)"/></g><path d="M285.161 67.03l-19.319-44.86a10.717 10.717 0 0 0-19.686 0l-53.126 123.362-133.74 12.4a10.717 10.717 0 0 0-6.084 18.723l100.908 88.646-29.531 131.034a10.718 10.718 0 0 0 15.927 11.572l15.371-9.127c25.199-163.12 96.041-282.862 129.28-331.75z" fill="#d8692f" transform="translate(0 -10.971)"/></g></svg>