<svg xmlns="http://www.w3.org/2000/svg" viewBox="0 0 256 256" width="512" height="512" enable-background="new 0 0 256 256"><style type="text/css">.st0{fill:#CAECFC;} .st1{fill:#6DCC6D;} .st2{fill:#FFCD29;} .st3{fill:#55ACD5;} .st4{fill:#EA4647;} .st5{fill:#231F20;}</style><g id="Layer_27"><path class="st0" d="M103.3 13.3h-74.2c-10 0-18.1 8.1-18.1 18.1v102.1c0 10 8.1 18.1 18.1 18.1h19.2c2.2 0 4.3 1.1 5.5 3l10.8 16.4c.6.9 1.7 1.1 2.6.5.2-.1.4-.3.5-.5l10.8-16.4c1.2-1.9 3.3-3 5.5-3h19.2c10 0 18.1-8.1 18.1-18.1v-102.1c.1-10-8-18.1-18-18.1zM226.9 104.4h-19.2c-2.2 0-4.3-1.1-5.5-3l-10.8-16.4c-.6-.9-1.7-1.1-2.6-.5-.2.1-.4.3-.5.5l-10.8 16.4c-1.2 1.9-3.3 3-5.5 3h-19.2c-10 0-18.1 8.1-18.1 18.1v102.1c0 10 8.1 18.1 18.1 18.1h74.2c10 0 18.1-8.1 18.1-18.1v-102.1c-.1-10-8.2-18.1-18.2-18.1z"/><circle class="st1" cx="66.2" cy="213" r="29.7"/><path class="st2" d="M241 19.5h-1.8v-1.8c0-1.4-1.1-2.5-2.5-2.5s-2.5 1.1-2.5 2.5v1.8h-1.8c-1.4 0-2.5 1.1-2.5 2.5s1.1 2.5 2.5 2.5h1.8v1.8c0 1.4 1.1 2.5 2.5 2.5s2.5-1.1 2.5-2.5v-1.8h1.8c1.4 0 2.5-1.1 2.5-2.5s-1.1-2.5-2.5-2.5z"/><path class="st1" d="M16.9 225.5c-.1-.3-.2-.6-.4-.9l-.3-.4c-1-.9-2.5-.9-3.5 0-.1.1-.2.2-.3.4-.1.1-.2.3-.2.4-.1.2-.1.3-.1.5-.1.3-.1.7 0 1l.1.5.2.4.3.4c1 1 2.5 1 3.5 0 .1-.1.2-.2.3-.4.1-.1.2-.3.2-.4.1-.1.1-.3.1-.5.1-.4.1-.7.1-1z"/><path class="st3" d="M222 2l-.1-.5c-.1-.2-.1-.3-.2-.4l-.3-.4c-1-.9-2.5-.9-3.5 0-.1.1-.2.2-.3.4-.1.1-.2.3-.2.4-.1.2-.1.3-.1.5s0 .3-.1.5c0 .2 0 .3.1.5l.1.5.2.4.3.4c1 1 2.5 1 3.5 0 .1-.1.2-.2.3-.4.1-.1.2-.3.2-.4.1-.1.1-.3.1-.5l.1-.5c-.1-.2-.1-.4-.1-.5z"/><path class="st4" d="M232.2 64c-.1-.3-.2-.6-.4-.9l-.3-.4c-1-.9-2.5-.9-3.5 0-.1.1-.2.2-.3.4-.1.1-.2.3-.2.4-.1.2-.1.3-.1.5-.1.3-.1.7 0 1l.1.5.2.4.3.4c1 1 2.5 1 3.5 0 .1-.1.2-.2.3-.4.1-.1.2-.3.2-.4.1-.1.1-.3.1-.5.2-.3.2-.7.1-1z"/><path class="st2" d="M41.2 247.5c-4.1-.8-7.2-4-8-8 0-.1-.1-.2-.2-.2s-.1.1-.2.2c-.8 4.1-4 7.2-8 8-.1 0-.2.1-.2.2s.1.1.2.2c4.1.8 7.2 4 8 8 0 .1.1.2.2.2s.1-.1.2-.2c.8-4.1 4-7.2 8-8 .1 0 .2-.1.2-.2 0-.2-.1-.2-.2-.2z"/><path class="st5" d="M103.3 10.8h-74.2c-11.4 0-20.6 9.2-20.6 20.6v102.1c0 11.4 9.2 20.6 20.6 20.6h19.2c1.4 0 2.7.7 3.5 1.9l10.8 16.4c1.3 2 4 2.6 6.1 1.2.5-.3.9-.8 1.2-1.2l10.8-16.4c.8-1.2 2.1-1.9 3.5-1.9h19.2c11.4 0 20.6-9.2 20.6-20.6v-102.1c-.1-11.4-9.3-20.6-20.7-20.6zm15.6 122.7c0 8.6-7 15.6-15.6 15.6h-19.2c-3.1 0-5.9 1.5-7.6 4.1l-10.3 15.6-10.3-15.6c-1.7-2.6-4.6-4.1-7.6-4.1h-19.2c-8.6 0-15.6-7-15.6-15.6v-102.1c0-8.6 7-15.6 15.6-15.6h74.2c8.6 0 15.6 7 15.6 15.6v102.1zM66.2 180.8c-17.8 0-32.2 14.4-32.2 32.2s14.4 32.2 32.2 32.2c17.8 0 32.2-14.4 32.2-32.2 0-17.8-14.4-32.2-32.2-32.2zm0 59.4c-15 0-27.2-12.2-27.2-27.2s12.2-27.2 27.2-27.2 27.2 12.2 27.2 27.2-12.2 27.2-27.2 27.2zM81.2 203.3c-1-1-2.6-1-3.5 0l-16.1 16.1-6.1-6.7c-.9-1-2.5-1.1-3.5-.2-1 .9-1.1 2.5-.2 3.5l7.9 8.6c.5.5 1.1.8 1.8.8h.1c.7 0 1.3-.3 1.8-.7l17.9-17.9c.9-1 .9-2.5-.1-3.5zM226.9 101.9h-19.2c-1.4 0-2.7-.7-3.5-1.9l-10.8-16.4c-1.3-2-4.1-2.6-6.1-1.2-.5.3-.9.7-1.2 1.2l-10.8 16.4c-.8 1.2-2.1 1.9-3.5 1.9h-19.2c-11.4 0-20.6 9.2-20.6 20.6v102.1c0 11.4 9.2 20.6 20.6 20.6h74.2c11.4 0 20.6-9.2 20.6-20.6v-102.1c.1-11.4-9.1-20.6-20.5-20.6zm15.6 122.7c0 8.6-7 15.6-15.6 15.6h-74.2c-8.6 0-15.6-7-15.6-15.6v-102.1c0-8.6 7-15.6 15.6-15.6h19.2c3.1 0 5.9-1.5 7.6-4.1l10.3-15.6 10.3 15.6c1.7 2.6 4.6 4.1 7.6 4.1h19.2c8.6 0 15.6 7 15.6 15.6v102.1z"/><circle class="st4" cx="189.8" cy="43" r="29.7"/><path class="st5" d="M189.8 10.8c-17.8 0-32.2 14.4-32.2 32.2 0 17.8 14.4 32.2 32.2 32.2 17.8 0 32.2-14.4 32.2-32.2 0-17.8-14.4-32.2-32.2-32.2zm0 59.4c-15 0-27.2-12.2-27.2-27.2s12.2-27.2 27.2-27.2 27.2 12.2 27.2 27.2-12.2 27.2-27.2 27.2zM200.5 50.2l-17.9-17.9c-1-1-2.6-.9-3.5.1-.9 1-.9 2.5 0 3.5l17.9 17.8c1 1 2.5 1 3.5.1s1-2.6 0-3.6zM200.5 32.3c-1-1-2.6-1-3.5 0l-17.9 17.9c-1 1-1 2.5-.1 3.5 1 1 2.5 1 3.5.1l.1-.1 17.9-17.9c1-1 1-2.6 0-3.5zM99.3 48.5h-51.3c-1.4 0-2.5 1.1-2.5 2.5s1.1 2.5 2.5 2.5h51.3c1.4 0 2.5-1.1 2.5-2.5s-1.1-2.5-2.5-2.5zM99.3 62h-51.3c-1.4 0-2.5 1.1-2.5 2.5s1.1 2.5 2.5 2.5h51.3c1.4 0 2.5-1.1 2.5-2.5s-1.1-2.5-2.5-2.5zM99.3 75.6h-51.3c-1.4 0-2.5 1.1-2.5 2.5s1.1 2.5 2.5 2.5h51.3c1.4 0 2.5-1.1 2.5-2.5s-1.1-2.5-2.5-2.5zM99.3 89.1h-51.3c-1.4 0-2.5 1.1-2.5 2.5s1.1 2.5 2.5 2.5h51.3c1.4 0 2.5-1.1 2.5-2.5s-1.1-2.5-2.5-2.5zM99.3 102.6h-51.3c-1.4 0-2.5 1.1-2.5 2.5s1.1 2.5 2.5 2.5h51.3c1.4 0 2.5-1.1 2.5-2.5s-1.1-2.5-2.5-2.5zM99.3 116.2h-51.3c-1.4 0-2.5 1.1-2.5 2.5s1.1 2.5 2.5 2.5h51.3c1.4 0 2.5-1.1 2.5-2.5s-1.1-2.5-2.5-2.5zM35.4 48.5h-2.4c-1.4 0-2.5 1.1-2.5 2.5s1.1 2.5 2.5 2.5h2.4c1.4 0 2.5-1.1 2.5-2.5s-1.1-2.5-2.5-2.5zM35.4 75.6h-2.4c-1.4 0-2.5 1.1-2.5 2.5s1.1 2.5 2.5 2.5h2.4c1.4 0 2.5-1.1 2.5-2.5s-1.1-2.5-2.5-2.5zM35.4 102.6h-2.4c-1.4 0-2.5 1.1-2.5 2.5s1.1 2.5 2.5 2.5h2.4c1.4 0 2.5-1.1 2.5-2.5s-1.1-2.5-2.5-2.5zM219.5 139.4h-51.3c-1.4 0-2.5 1.1-2.5 2.5s1.1 2.5 2.5 2.5h51.3c1.4 0 2.5-1.1 2.5-2.5s-1.1-2.5-2.5-2.5zM219.5 153h-51.3c-1.4 0-2.5 1.1-2.5 2.5s1.1 2.5 2.5 2.5h51.3c1.4 0 2.5-1.1 2.5-2.5s-1.1-2.5-2.5-2.5zM219.5 166.5h-51.3c-1.4 0-2.5 1.1-2.5 2.5s1.1 2.5 2.5 2.5h51.3c1.4 0 2.5-1.1 2.5-2.5s-1.1-2.5-2.5-2.5zM219.5 180h-51.3c-1.4 0-2.5 1.1-2.5 2.5s1.1 2.5 2.5 2.5h51.3c1.4 0 2.5-1.1 2.5-2.5s-1.1-2.5-2.5-2.5zM219.5 193.6h-51.3c-1.4 0-2.5 1.1-2.5 2.5s1.1 2.5 2.5 2.5h51.3c1.4 0 2.5-1.1 2.5-2.5s-1.1-2.5-2.5-2.5zM219.5 207.1h-51.3c-1.4 0-2.5 1.1-2.5 2.5s1.1 2.5 2.5 2.5h51.3c1.4 0 2.5-1.1 2.5-2.5s-1.1-2.5-2.5-2.5zM155.7 139.4h-2.4c-1.4 0-2.5 1.1-2.5 2.5s1.1 2.5 2.5 2.5h2.4c1.4 0 2.5-1.1 2.5-2.5s-1.2-2.5-2.5-2.5zM155.7 166.5h-2.4c-1.4 0-2.5 1.1-2.5 2.5s1.1 2.5 2.5 2.5h2.4c1.4 0 2.5-1.1 2.5-2.5s-1.2-2.5-2.5-2.5zM155.7 193.6h-2.4c-1.4 0-2.5 1.1-2.5 2.5s1.1 2.5 2.5 2.5h2.4c1.4 0 2.5-1.1 2.5-2.5s-1.2-2.5-2.5-2.5z"/></g></svg>