<svg height="512pt" viewBox="0 0 512.00005 512" width="512pt" xmlns="http://www.w3.org/2000/svg"><path d="M502.004 256c0 135.863-110.141 246.004-246.004 246.004s-246-110.141-246-246.004 110.137-246 246-246 246.004 110.137 246.004 246zm0 0" fill="#91def5"/><path d="M404 216h-108v-108h-80v108h-108v80h108v108h80v-108h108zm0 0" fill="#fff"/><path d="M296 414h-80c-5.523 0-10-4.477-10-10v-98h-98c-5.523 0-10-4.477-10-10v-80c0-5.523 4.477-10 10-10h98v-98c0-5.523 4.477-10 10-10h80c5.523 0 10 4.477 10 10v98h98c5.523 0 10 4.477 10 10v80c0 5.523-4.477 10-10 10h-98v98c0 5.523-4.477 10-10 10zm-70-20h60v-98c0-5.523 4.477-10 10-10h98v-60h-98c-5.523 0-10-4.477-10-10v-98h-60v98c0 5.523-4.477 10-10 10h-98v60h98c5.523 0 10 4.477 10 10zm0 0M255.938 512c-6.531 0-13.07-.25-19.621-.75-60.836-4.664-118.133-31.027-161.336-74.227-48.352-48.355-74.98-112.641-74.98-181.023 0-68.379 26.629-132.668 74.98-181.02 48.352-48.352 112.641-74.98 181.02-74.98 68.383 0 132.668 26.629 181.023 74.98 43.199 43.203 69.563 100.5 74.227 161.336 4.613 60.176-12.145 120.156-47.184 168.898-3.223 4.484-9.473 5.504-13.957 2.281s-5.504-9.473-2.281-13.957c67.727-94.207 57.234-222.23-24.949-304.418-92.016-92.016-241.738-92.016-333.754 0-92.02 92.02-92.02 241.738 0 333.758 82.184 82.18 210.207 92.676 304.418 24.945 4.484-3.223 10.73-2.199 13.957 2.285 3.223 4.484 2.199 10.73-2.285 13.957-43.438 31.227-95.805 47.934-149.277 47.934zm0 0M429.953 439.953c-2.633 0-5.211-1.07-7.07-2.93-1.859-1.863-2.93-4.441-2.93-7.07 0-2.633 1.07-5.211 2.93-7.07 1.859-1.859 4.438-2.93 7.07-2.93 2.629 0 5.207 1.07 7.07 2.93 1.859 1.859 2.93 4.438 2.93 7.07 0 2.629-1.07 5.207-2.93 7.07-1.863 1.859-4.441 2.93-7.07 2.93zm0 0"/></svg>