<svg height="512pt" viewBox="0 -7 512 512" width="512pt" xmlns="http://www.w3.org/2000/svg"><path d="M194.289 90.516l-39.777-66.273c-4.543-7.586-2.098-17.406 5.488-21.953 7.586-4.543 17.406-2.094 21.953 5.488l39.758 66.273zm0 0M317.711 90.516l-27.438-16.465 39.758-66.273c4.563-7.582 14.402-10.047 21.969-5.488 7.566 4.547 10.031 14.367 5.488 21.953zm0 0" fill="#57565c"/><path d="M352 210.289h-192v-64c0-52.941 43.055-96 96-96s96 43.059 96 96zm0 0" fill="#ffca28"/><g fill="#57565c"><path d="M128 242.289h-112c-8.832 0-16-7.168-16-16s7.168-16 16-16h112zm0 0M496 242.289h-112v-32h112c8.832 0 16 7.168 16 16s-7.168 16-16 16zm0 0M128 322.289h-112c-8.832 0-16-7.168-16-16s7.168-16 16-16h112zm0 0M496 322.289h-112v-32h112c8.832 0 16 7.168 16 16s-7.168 16-16 16zm0 0M53.488 482.289c-6.242-6.238-6.242-16.383 0-22.621l79.199-79.203 22.625 22.625-79.199 79.199c-6.258 6.242-16.387 6.242-22.625 0zm0 0M441.375 479.539l-79.199-79.184 22.625-22.625 79.199 79.184c6.258 6.238 6.258 16.383 0 22.625-6.258 6.238-16.383 6.238-22.625 0zm0 0"/></g><path d="M160 146.289h192v64h-192zm0 0" fill="#e8a600"/><path d="M255.953 498.289c-79.41-.031-143.984-64.656-143.953-144.047l.063-176 288 .098-.063 176c-.031 79.406-64.656 143.965-144.047 143.949zm0 0" fill="#ef5350"/><path d="M272 465.348v-95.059h-32v95.059c-71.887-7.984-128-69.059-128-143.059v32c0 79.41 64.594 144 144 144s144-64.59 144-144v-32c0 73.984-56.113 135.059-128 143.059zm0 0" fill="#e53935"/><path d="M240 242.289h32v32h-32zm0 0M240 306.289h32v32h-32zm0 0" fill="#fff"/></svg>