<svg height="480pt" viewBox="0 0 480 480" width="480pt" xmlns="http://www.w3.org/2000/svg"><path d="M8 456c.027 8.824 7.176 15.973 16 16h432c8.824-.027 15.973-7.176 16-16v-320h-464zm300.52-235.48l91.48 91.48-93.824 93.824 93.824-93.824zm-20.52-52.52l-96 272zm-116.52 52.52l-91.48 91.48 93.824 93.824-93.824-93.824zm0 0" fill="#f1f2f2"/><path d="M456 8h-432c-8.836 0-16 7.164-16 16v112h464v-112c0-8.836-7.164-16-16-16zm-384 88c-13.254 0-24-10.746-24-24s10.746-24 24-24 24 10.746 24 24-10.746 24-24 24zm80 0c-13.254 0-24-10.746-24-24s10.746-24 24-24 24 10.746 24 24-10.746 24-24 24zm80 0c-13.254 0-24-10.746-24-24s10.746-24 24-24 24 10.746 24 24-10.746 24-24 24zm0 0" fill="#46f8ff"/><path d="M96 72c0 13.254-10.746 24-24 24s-24-10.746-24-24 10.746-24 24-24 24 10.746 24 24zm0 0" fill="#ff9811"/><path d="M176 72c0 13.254-10.746 24-24 24s-24-10.746-24-24 10.746-24 24-24 24 10.746 24 24zm0 0" fill="#ffcd00"/><path d="M256 72c0 13.254-10.746 24-24 24s-24-10.746-24-24 10.746-24 24-24 24 10.746 24 24zm0 0" fill="#ff3051"/><path d="M456 0h-432c-13.254 0-24 10.746-24 24v432c0 13.254 10.746 24 24 24h432c13.254 0 24-10.746 24-24v-432c0-13.254-10.746-24-24-24zm-440 24c0-4.418 3.582-8 8-8h432c4.418 0 8 3.582 8 8v104h-448zm448 432c0 4.418-3.582 8-8 8h-432c-4.418 0-8-3.582-8-8v-312h448zm0 0M72 40c-17.672 0-32 14.328-32 32s14.328 32 32 32 32-14.328 32-32-14.328-32-32-32zm0 48c-8.836 0-16-7.164-16-16s7.164-16 16-16 16 7.164 16 16-7.164 16-16 16zm0 0M152 40c-17.672 0-32 14.328-32 32s14.328 32 32 32 32-14.328 32-32-14.328-32-32-32zm0 48c-8.836 0-16-7.164-16-16s7.164-16 16-16 16 7.164 16 16-7.164 16-16 16zm0 0M232 40c-17.672 0-32 14.328-32 32s14.328 32 32 32 32-14.328 32-32-14.328-32-32-32zm0 48c-8.836 0-16-7.164-16-16s7.164-16 16-16 16 7.164 16 16-7.164 16-16 16zm0 0M189.336 447.543c4.168 1.473 8.738-.711 10.207-4.879l96-272c1.473-4.168-.711-8.738-4.879-10.207-4.168-1.473-8.738.711-10.207 4.879l-96 272c-1.473 4.168.711 8.738 4.879 10.207zm0 0M306.176 413.824c2.121 0 4.156-.844 5.656-2.344l93.824-93.824c3.121-3.125 3.121-8.188 0-11.313l-91.48-91.48c-2.008-2.078-4.984-2.914-7.781-2.18-2.797.73-4.98 2.914-5.711 5.711-.734 2.797.102 5.773 2.18 7.781l85.824 85.824-88.168 88.168c-2.285 2.289-2.973 5.727-1.734 8.719 1.238 2.988 4.156 4.938 7.391 4.938zm0 0M168.168 411.48c2.008 2.078 4.984 2.914 7.781 2.18 2.797-.73 4.98-2.914 5.711-5.711.734-2.797-.102-5.773-2.18-7.781l-88.168-88.168 85.824-85.824c2.078-2.008 2.914-4.984 2.18-7.781-.73-2.797-2.914-4.98-5.711-5.711-2.797-.734-5.773.102-7.781 2.18l-91.48 91.48c-3.121 3.125-3.121 8.188 0 11.313zm0 0"/></svg>