<svg xmlns="http://www.w3.org/2000/svg" viewBox="0 0 512.001 512.001" enable-background="new 0 0 512.001 512.001"><path d="M348.404 139.584h-183.578c-13.101 0-23.721 10.62-23.721 23.721v56.885h231.02v-56.885c0-13.101-10.62-23.721-23.721-23.721z" fill="#FF5D5D"/><path d="M164.826 341.022h183.579c13.101 0 23.721-10.62 23.721-23.721v-97.112h-231.02v97.112c-.001 13.101 10.619 23.721 23.72 23.721z" fill="#FFC66C"/><g fill="#686C83"><path d="M292.093 141.613l-76.964 76.963-75.254.189 77.54-77.54zM372.125 163.305c0-7.457-3.444-14.106-8.824-18.455l-73.915 73.915 75.254-.189 7.485-7.485v-47.786z"/></g><path d="M256.615 10.001c-46.604 0-84.52 37.916-84.52 84.52v45.063h42.26v-45.063c0-23.302 18.958-42.26 42.26-42.26s42.26 18.958 42.26 42.26v45.063h42.26v-45.063c0-46.604-37.916-84.52-84.52-84.52z" fill="#D8D8E4"/><path d="M300.44 348.091c1.86-1.86 2.931-4.44 2.931-7.07s-1.07-5.21-2.931-7.069c-1.859-1.86-4.439-2.931-7.069-2.931-2.641 0-5.21 1.07-7.08 2.931-1.86 1.859-2.92 4.439-2.92 7.069s1.06 5.21 2.92 7.07c1.87 1.86 4.439 2.93 7.08 2.93 2.629 0 5.199-1.069 7.069-2.93zM256 246.001c-2.63 0-5.21 1.07-7.07 2.93-1.86 1.86-2.93 4.44-2.93 7.07s1.069 5.21 2.93 7.069c1.86 1.86 4.44 2.931 7.07 2.931s5.21-1.07 7.069-2.931c1.861-1.859 2.931-4.439 2.931-7.069s-1.07-5.21-2.931-7.07c-1.859-1.86-4.439-2.93-7.069-2.93zM256 277.727c-5.522 0-10 4.478-10 10v15.024c0 5.522 4.478 10 10 10s10-4.478 10-10v-15.024c0-5.522-4.477-10-10-10zM46.774 492.001h-7.944v-68.35c0-4.045-2.437-7.691-6.173-9.239-3.737-1.546-8.039-.692-10.898 2.168l-18.827 18.826c-3.905 3.905-3.905 10.237 0 14.143 3.906 3.904 10.236 3.904 14.143 0l1.755-1.755v44.207h-7.944c-5.522 0-10 4.478-10 10s4.478 10 10 10h35.889c5.522 0 10-4.478 10-10s-4.479-10-10.001-10zM46.774 362.498h-7.944v-68.351c0-4.045-2.437-7.691-6.173-9.239-3.737-1.545-8.039-.691-10.898 2.168l-18.827 18.826c-3.905 3.905-3.905 10.237 0 14.143 3.906 3.904 10.236 3.904 14.143 0l1.755-1.755v44.208h-7.944c-5.522 0-10 4.478-10 10s4.478 10 10 10h35.889c5.522 0 10-4.478 10-10s-4.479-10-10.001-10zM135.607 492.001h-7.944v-68.35c0-4.045-2.437-7.691-6.173-9.239-3.738-1.546-8.039-.692-10.898 2.168l-18.826 18.826c-3.905 3.905-3.905 10.237 0 14.143 3.906 3.904 10.236 3.904 14.143 0l1.755-1.755v44.207h-7.944c-5.522 0-10 4.478-10 10s4.478 10 10 10h35.889c5.522 0 10-4.478 10-10s-4.48-10-10.002-10zM313.274 492.001h-7.944v-68.35c0-4.045-2.437-7.691-6.173-9.239-3.737-1.546-8.038-.692-10.898 2.168l-18.826 18.826c-3.905 3.905-3.905 10.237 0 14.143 3.906 3.904 10.236 3.904 14.143 0l1.755-1.755v44.207h-7.944c-5.522 0-10 4.478-10 10s4.478 10 10 10h35.889c5.522 0 10-4.478 10-10s-4.48-10-10.002-10zM402.107 492.001h-7.944v-68.35c0-4.045-2.437-7.691-6.173-9.239-3.737-1.546-8.039-.692-10.898 2.168l-18.826 18.826c-3.905 3.905-3.905 10.237 0 14.143 3.906 3.904 10.236 3.904 14.143 0l1.755-1.755v44.207h-7.944c-5.522 0-10 4.478-10 10s4.478 10 10 10h35.889c5.522 0 10-4.478 10-10s-4.48-10-10.002-10zM403.132 362.498h-9.132v-24.163c0-5.522-4.478-10-10-10s-10 4.478-10 10v24.163h-6.757c-5.522 0-10 4.478-10 10s4.478 10 10 10h35.889c5.522 0 10-4.478 10-10s-4.477-10-10-10zM502 222.571h-7.944v-68.351c0-4.044-2.437-7.691-6.173-9.239-3.737-1.548-8.039-.692-10.898 2.167l-18.826 18.826c-3.905 3.905-3.905 10.237 0 14.143 3.906 3.905 10.236 3.905 14.143 0l1.755-1.755v44.208h-7.944c-5.522 0-10 4.477-10 10s4.478 10 10 10h35.887c5.522 0 10-4.477 10-10s-4.477-9.999-10-9.999zM206.055 413.651c-21.75 0-39.445 17.695-39.445 39.445v19.46c0 21.75 17.695 39.445 39.445 39.445s39.445-17.695 39.445-39.445v-19.46c0-21.75-17.695-39.445-39.445-39.445zm19.445 58.905c0 10.723-8.723 19.445-19.445 19.445s-19.445-8.723-19.445-19.445v-19.46c0-10.723 8.723-19.445 19.445-19.445s19.445 8.723 19.445 19.445v19.46zM39.446 144.22c-21.75 0-39.446 17.695-39.446 39.445v19.459c0 21.75 17.695 39.446 39.445 39.446s39.445-17.695 39.445-39.446v-19.459c.001-21.75-17.694-39.445-39.444-39.445zm19.445 58.905c0 10.723-8.723 19.446-19.445 19.446s-19.446-8.723-19.446-19.446v-19.459c0-10.722 8.723-19.445 19.445-19.445s19.445 8.723 19.445 19.445l.001 19.459zM123.824 382.498c5.522 0 10-4.478 10-10s-4.478-10-10-10c-10.723 0-19.446-8.724-19.446-19.446v-19.459c0-5.522-4.478-10-10-10s-10 4.478-10 10v19.459c0 21.75 17.695 39.446 39.446 39.446zM472.555 284.147c-21.75 0-39.445 17.695-39.445 39.445v19.459c0 21.751 17.695 39.446 39.445 39.446s39.445-17.695 39.445-39.446v-19.459c0-21.75-17.695-39.445-39.445-39.445zm19.445 58.904c0 10.723-8.723 19.446-19.445 19.446s-19.445-8.724-19.445-19.446v-19.459c0-10.723 8.723-19.445 19.445-19.445s19.445 8.723 19.445 19.445v19.459zM472.555 413.651c-21.75 0-39.445 17.695-39.445 39.445v19.46c0 21.75 17.695 39.445 39.445 39.445s39.445-17.695 39.445-39.445v-19.46c0-21.75-17.695-39.445-39.445-39.445zm19.445 58.905c0 10.723-8.723 19.445-19.445 19.445s-19.445-8.723-19.445-19.445v-19.46c0-10.723 8.723-19.445 19.445-19.445s19.445 8.722 19.445 19.445v19.46zM17.074 35.899l1.755-1.755v44.208h-7.944c-5.522 0-10 4.477-10 10s4.478 10 10 10h35.889c5.522 0 10-4.477 10-10s-4.478-10-10-10h-7.944v-68.351c0-4.044-2.437-7.691-6.173-9.239-3.737-1.548-8.039-.692-10.898 2.167l-18.827 18.827c-3.905 3.905-3.905 10.237 0 14.143 3.906 3.905 10.236 3.905 14.142 0zM105.907 35.899l1.755-1.755v44.208h-7.944c-5.522 0-10 4.477-10 10s4.478 10 10 10h35.889c5.522 0 10-4.477 10-10s-4.478-10-10-10h-7.944v-68.351c0-4.044-2.437-7.691-6.173-9.239-3.738-1.548-8.039-.692-10.898 2.167l-18.827 18.827c-3.905 3.905-3.905 10.237 0 14.143 3.906 3.905 10.236 3.905 14.142 0zM372.407 35.899l1.755-1.755v44.208h-7.944c-5.522 0-10 4.477-10 10s4.478 10 10 10h35.889c5.522 0 10-4.477 10-10s-4.478-10-10-10h-7.944v-68.351c0-4.044-2.437-7.691-6.173-9.239-3.737-1.548-8.039-.692-10.898 2.167l-18.826 18.826c-3.905 3.905-3.905 10.237 0 14.143 3.905 3.906 10.235 3.906 14.141.001zM472.555.001c-21.75 0-39.445 17.695-39.445 39.445v19.46c0 21.75 17.695 39.445 39.445 39.445s39.445-17.694 39.445-39.444v-19.46c0-21.75-17.695-39.446-39.445-39.446zm19.445 58.906c0 10.722-8.723 19.445-19.445 19.445s-19.445-8.723-19.445-19.445v-19.46c0-10.722 8.723-19.445 19.445-19.445s19.445 8.723 19.445 19.445v19.46zM384.15 144.22c-1.412 0-2.753.296-3.971.824-5.624-11.275-17.271-19.043-30.704-19.043h-1.523v-34.048c0-32.668-17.612-63.171-45.963-79.606-4.779-2.771-10.897-1.142-13.667 3.636s-1.142 10.897 3.636 13.667c22.202 12.87 35.994 36.743 35.994 62.303v34.048h-20.976v-34.048c0-28.108-22.867-50.976-50.976-50.976-28.109 0-50.976 22.868-50.976 50.976v34.048h-20.976v-34.048c0-25.559 13.791-49.432 35.991-62.302 4.777-2.77 6.405-8.889 3.636-13.667-2.769-4.777-8.886-6.405-13.667-3.636-28.349 16.435-45.96 46.938-45.96 79.604v34.049h-1.523c-18.91 0-34.294 15.384-34.294 34.294v147.079c0 24.067 19.581 43.647 43.648 43.647h29.359v11.476h-7.944c-5.522 0-10 4.478-10 10s4.478 10 10 10h35.889c5.522 0 10-4.478 10-10s-4.478-10-10-10h-7.944v-11.476h29.266c5.522 0 10-4.478 10-10s-4.478-10-10-10h-78.625c-13.04 0-23.648-10.608-23.648-23.647v-79.547h215.537v79.547c0 13.039-10.608 23.647-23.648 23.647h-12.29c-5.522 0-10 4.478-10 10s4.478 10 10 10h12.29c24.067 0 43.648-19.58 43.648-43.647v-64.823l.381.019c21.75 0 39.445-17.695 39.445-39.446v-19.459c0-21.75-17.695-39.445-39.445-39.445zm-99.524 63.608h-48.425l61.827-61.827h47.866l-59.596 59.596c-.678.678-1.23 1.432-1.672 2.231zm-124.957 0l61.233-61.233c.19-.191.364-.392.536-.593h48.305l-61.827 61.826h-48.247zm65.356-115.875c0-17.08 13.896-30.976 30.976-30.976s30.976 13.896 30.976 30.976v34.048h-61.951v-34.048h-.001zm-62.499 54.048h30.684l-44.978 44.979v-30.685c0-7.881 6.412-14.294 14.294-14.294zm149.827 61.827l50.979-50.979c.275 1.106.438 2.256.438 3.447v47.532h-51.417zm91.242-4.703c0 10.723-8.723 19.446-19.445 19.446l-.381.019v-58.389l.381.019c10.723 0 19.445 8.723 19.445 19.445v19.46zM256.613 20.004h-.074l-.539-.003c-5.522 0-10-4.477-10-10s4.478-10 10-10l.684.003c5.522.04 9.968 4.549 9.928 10.072-.04 5.498-4.51 9.928-9.999 9.928z"/></svg>