<svg height="512pt" viewBox="-8 0 512 512" width="512pt" xmlns="http://www.w3.org/2000/svg"><path d="M39.641 318.703c0 18.738 15.191 33.926 33.926 33.926h349.473c18.738 0 33.926-15.188 33.926-33.926v-206.664h-417.324zm0 0" fill="#d4ffff"/><path d="M411.75 10h-326.895c-24.969 0-45.215 20.242-45.215 45.215v56.824h417.324v-56.824c0-24.973-20.242-45.215-45.215-45.215zm-320.148 72.969c-11.293 0-20.445-9.156-20.445-20.445 0-11.293 9.156-20.445 20.445-20.445 11.293 0 20.445 9.152 20.445 20.445 0 11.289-9.152 20.445-20.445 20.445zm65.469 0c-11.293 0-20.445-9.156-20.445-20.445 0-11.293 9.156-20.445 20.445-20.445 11.293 0 20.445 9.152 20.445 20.445 0 11.289-9.152 20.445-20.445 20.445zm65.469 0c-11.293 0-20.445-9.156-20.445-20.445 0-11.293 9.156-20.445 20.445-20.445 11.293 0 20.445 9.152 20.445 20.445 0 11.289-9.152 20.445-20.445 20.445zm0 0" fill="#9bdcff"/><path d="M112.047 62.523c0 11.289-9.152 20.445-20.445 20.445-11.293 0-20.445-9.156-20.445-20.445 0-11.293 9.152-20.445 20.445-20.445 11.293 0 20.445 9.152 20.445 20.445zm0 0" fill="#ff8db2"/><path d="M177.516 62.523c0 11.289-9.152 20.445-20.445 20.445-11.289 0-20.445-9.156-20.445-20.445 0-11.293 9.156-20.445 20.445-20.445 11.293 0 20.445 9.152 20.445 20.445zm0 0" fill="#ffe671"/><path d="M242.984 62.523c0 11.289-9.152 20.445-20.445 20.445-11.289 0-20.445-9.156-20.445-20.445 0-11.293 9.156-20.445 20.445-20.445 11.293 0 20.445 9.152 20.445 20.445zm0 0" fill="#78ffa9"/><path d="M329.07 447.238h-49.188c3.113 5.375 4.906 11.613 4.906 18.273s-1.793 12.895-4.906 18.27h49.188c10.09 0 18.273-8.18 18.273-18.27s-8.184-18.273-18.273-18.273zm0 0M216.723 447.238h-52.84c-10.09 0-18.273 8.184-18.273 18.273 0 10.09 8.18 18.27 18.273 18.27h52.84c-3.113-5.375-4.906-11.609-4.906-18.27 0-6.66 1.789-12.898 4.906-18.273zm0 0" fill="#6ab6ff"/><path d="M279.883 447.238c-6.316-10.887-18.086-18.215-31.578-18.215s-25.27 7.328-31.582 18.215c-3.113 5.375-4.906 11.613-4.906 18.273s1.793 12.895 4.906 18.27c6.313 10.891 18.09 18.219 31.582 18.219s25.266-7.328 31.578-18.219c3.113-5.375 4.906-11.609 4.906-18.27 0-6.66-1.789-12.898-4.906-18.273zm0 0" fill="#9bdcff"/><path d="M91.602 32.074c-16.789 0-30.445 13.66-30.445 30.445 0 16.789 13.66 30.445 30.445 30.445 16.789 0 30.445-13.656 30.445-30.445 0-16.785-13.656-30.445-30.445-30.445zm0 40.895c-5.758 0-10.445-4.688-10.445-10.445 0-5.762 4.688-10.445 10.445-10.445 5.758 0 10.445 4.684 10.445 10.445 0 5.758-4.684 10.445-10.445 10.445zm0 0M157.07 32.074c-16.789 0-30.445 13.66-30.445 30.445 0 16.789 13.66 30.445 30.445 30.445 16.789 0 30.445-13.656 30.445-30.445 0-16.785-13.656-30.445-30.445-30.445zm0 40.895c-5.758 0-10.445-4.688-10.445-10.445 0-5.762 4.688-10.445 10.445-10.445 5.758 0 10.445 4.684 10.445 10.445 0 5.758-4.688 10.445-10.445 10.445zm0 0M222.539 32.074c-16.785 0-30.445 13.66-30.445 30.445 0 16.789 13.66 30.445 30.445 30.445 16.789 0 30.445-13.656 30.445-30.445 0-16.785-13.656-30.445-30.445-30.445zm0 40.895c-5.758 0-10.445-4.688-10.445-10.445 0-5.762 4.688-10.445 10.445-10.445 5.762 0 10.445 4.684 10.445 10.445 0 5.758-4.684 10.445-10.445 10.445zm0 0M486.605 455.512h-131.098c-4.047-10.668-14.367-18.27-26.438-18.27h-43.898c-6.563-8.535-16.008-14.73-26.871-17.125v-56.887l-.027-.602h164.766c24.219 0 43.926-19.703 43.926-43.926v-263.488c0-30.445-24.77-55.215-55.215-55.215h-326.895c-30.445 0-55.215 24.77-55.215 55.215v263.488c0 24.223 19.707 43.926 43.926 43.926h164.766l-.027.602v56.887c-10.863 2.395-20.313 8.59-26.871 17.125h-47.551c-12.07 0-22.391 7.602-26.438 18.27h-127.445c-5.523 0-10 4.477-10 10s4.477 10 10 10h127.445c4.047 10.668 14.367 18.27 26.438 18.27h47.551c8.508 11.066 21.867 18.219 36.871 18.219 15.004 0 28.359-7.152 36.867-18.219h43.898c12.07 0 22.391-7.602 26.441-18.27h131.094c5.523 0 10-4.477 10-10s-4.477-10-10-10zm-436.965-136.809v-196.664h282.664c5.52 0 10-4.477 10-10 0-5.52-4.48-10-10-10h-282.664v-46.824c0-19.418 15.797-35.215 35.215-35.215h326.895c19.418 0 35.215 15.797 35.215 35.215v46.824h-34.66c-5.523 0-10 4.48-10 10 0 5.523 4.477 10 10 10h34.66v196.664c0 13.191-10.734 23.926-23.926 23.926h-349.473c-13.191 0-23.926-10.734-23.926-23.926zm152.918 155.078h-38.676c-4.563 0-8.27-3.711-8.27-8.27 0-4.559 3.707-8.27 8.27-8.27h38.676c-1 5.527-.961 11.246 0 16.539zm45.746 18.219c-13.242 0-24.633-9.879-26.281-23.223-.051-.418-.094-.836-.125-1.258l-.031-.406c-.926-15.27 11.266-28.09 26.438-28.09 13.301 0 24.633 9.941 26.277 23.227.055.414.094.836.125 1.254l.031.41c.926 15.301-11.285 28.086-26.434 28.086zm80.766-18.219h-35.02c1.016-5.625.941-11.313 0-16.543h35.02c4.563 0 8.273 3.711 8.273 8.273 0 4.559-3.711 8.27-8.273 8.27zm0 0M212.707 199.277c3.465-4.301 2.789-10.598-1.508-14.063-4.301-3.465-10.598-2.793-14.063 1.508l-22.594 28.023c-7.23 8.973-7.23 21.023 0 29.996l22.594 28.023c3.473 4.309 9.773 4.965 14.059 1.508 4.301-3.465 4.977-9.762 1.512-14.063l-22.594-28.023c-1.27-1.574-1.27-3.313 0-4.891zm0 0M299.469 186.723c-3.465-4.301-9.766-4.977-14.063-1.508-4.301 3.469-4.973 9.762-1.508 14.063l22.59 28.023c1.273 1.574 1.273 3.313 0 4.891l-22.59 28.023c-3.465 4.301-2.793 10.594 1.508 14.063 4.301 3.465 10.594 2.789 14.063-1.512l22.594-28.023c7.23-8.969 7.23-21.023 0-29.996zm0 0M258.93 171.469c-5.441-.957-10.629 2.668-11.586 8.105l-17.773 100.719c-.961 5.438 2.668 10.625 8.109 11.586 5.484.965 10.633-2.711 11.586-8.109l17.77-100.715c.961-5.441-2.668-10.629-8.105-11.586zm0 0M372.328 102.039h-.023c-5.523 0-9.988 4.48-9.988 10 0 5.523 4.488 10 10.012 10s10-4.477 10-10c0-5.52-4.477-10-10-10zm0 0"/></svg>