<svg xmlns="http://www.w3.org/2000/svg" viewBox="0 0 58 58" enable-background="new 0 0 58 58"><path d="M34 0c-11.227 0-20.65 2.73-23.272 6.418-6.098 1.436-10.233 3.834-10.683 6.582h-.045v37h.045c.731 4.461 11.174 8 23.955 8 11.227 0 20.648-2.731 23.269-6.419 6.097-1.436 10.236-3.833 10.687-6.581h.044v-36.5c0-4.694-10.745-8.5-24-8.5z" fill="#424A60"/><g fill="#424A60"><path d="M24 46c-13.255 0-24-3.806-24-8.5v12.5h.045c.731 4.461 11.174 8 23.955 8s23.224-3.539 23.955-8h.045v-12.5c0 4.694-10.745 8.5-24 8.5zM0 37v.5c0-.168.018-.334.045-.5h-.045zM47.955 37c.027.166.045.332.045.5v-.5h-.045z"/></g><g fill="#556080"><path d="M24 34c-13.255 0-24-3.806-24-8.5v12.5h.045c.731 4.461 11.174 8 23.955 8s23.224-3.539 23.955-8h.045v-12.5c0 4.694-10.745 8.5-24 8.5zM0 25v.5c0-.168.018-.334.045-.5h-.045zM47.955 25c.027.166.045.332.045.5v-.5h-.045z"/></g><ellipse cx="24" cy="13.5" rx="24" ry="8.5" fill="#7FABDA"/><g fill="#7383BF"><path d="M24 22c-13.255 0-24-3.806-24-8.5v12.5h.045c.731 4.461 11.174 8 23.955 8s23.224-3.539 23.955-8h.045v-12.5c0 4.694-10.745 8.5-24 8.5zM0 13v.5c0-.168.018-.334.045-.5h-.045zM47.955 13c.027.166.045.332.045.5v-.5h-.045z"/></g><path d="M34 0c-11.228 0-20.653 2.731-23.273 6.42 3.802-.896 8.363-1.42 13.273-1.42 12.781 0 23.224 3.538 23.955 8h.045v2.402c6.054-1.543 10-4.059 10-6.902 0-4.694-10.745-8.5-24-8.5z" fill="#88C057"/><path d="M48 15.402v12.001000000000001c5.696-1.452 9.523-3.766 9.955-6.403h.045v-12.5c0 2.843-3.946 5.359-10 6.902z" fill="#61B872"/><path d="M48 27.402v12.001000000000001c5.696-1.452 9.523-3.766 9.955-6.403h.045v-12.5c0 2.843-3.946 5.359-10 6.902z" fill="#25AE88"/><path d="M48 39.402v10.598h-.045c-.089.542-.324 1.071-.687 1.581 6.097-1.436 10.236-3.833 10.687-6.581h.045v-12.5c0 2.843-3.946 5.359-10 6.902z" fill="#1A9172"/></svg>