<svg xmlns="http://www.w3.org/2000/svg" width="267.228" height="276.336" viewBox="0 0 267.228 276.336"><path d="M277.519 78.807h-70.154a8.111 8.111 0 0 0-4.126 15.093c30.566 18.061 46.443 39.13 48.537 64.409a17.434 17.434 0 0 0 17.415 15.665 34.281 34.281 0 0 0 33.743-34.267v-2.727c0-22.129-6.554-36.238-18.648-54.533a8.112 8.112 0 0 0-6.767-3.64z" transform="translate(-96.267 59.826)" fill="#ffc380"/><path d="M334.785 354.523a25.443 25.443 0 0 1-25.414 25.414h-130.715a8.105 8.105 0 0 1-4.128-1.129c-9.176-5.425-18.441-9.891-25.885-13.481-2.6-1.252-5.049-2.434-7.28-3.549a8.111 8.111 0 0 1-4.483-7.255v-103.823a8.111 8.111 0 0 1 4.483-7.255c32.773-16.384 60.016-18.366 91.785-18.366 4.92 0 9.951.048 15.125.1 5.722.054 11.638.11 17.84.11h25.642a25.406 25.406 0 0 1 21.882 38.329 25.393 25.393 0 0 1 8.652 34.607 25.388 25.388 0 0 1 5.533 38.816 25.238 25.238 0 0 1 6.963 17.482z" transform="translate(-67.557 -225.083)" fill="#ffcf99"/><g fill="#29ccb1"><path d="M450.629 111.061h-17.3a8.111 8.111 0 0 0 0 16.222h17.3a8.111 8.111 0 1 0 0-16.222z" transform="translate(103.819 200.173) translate(-304.092 -111.061)"/><path d="M226.21 111.061h-17.3a8.111 8.111 0 1 0 0 16.222h17.3a8.111 8.111 0 0 0 0-16.222z" transform="translate(103.819 200.173) translate(-200.796 -111.061)"/><path d="M281.686 0a8.106 8.106 0 0 0-7.031 4.057l-8.655 14.986a8.111 8.111 0 1 0 14.048 8.111l8.652-14.985a8.113 8.113 0 0 0-7.014-12.169z" transform="translate(103.819 200.173) translate(-230.309 44.953)"/><path d="M385.227 0a8.113 8.113 0 0 0-7.016 12.167l8.652 14.985a8.111 8.111 0 1 0 14.048-8.111l-8.652-14.984a8.105 8.105 0 0 0-7.032-4.057z" transform="translate(103.819 200.173) translate(-281.956 44.954)"/></g><path d="M88.779 460.35v-42.718h-16.222v42.718a8.111 8.111 0 0 0 16.222 0z" transform="translate(-37.951 -417.528)" fill="#73c3ff"/><g fill="#d66893"><path d="M450.629 111.061h-17.3a8.111 8.111 0 0 0 0 16.222h17.3a8.111 8.111 0 1 0 0-16.222z" transform="translate(103.819 200.173) translate(-304.092 -111.061)"/><path d="M226.21 111.061h-17.3a8.111 8.111 0 1 0 0 16.222h17.3a8.111 8.111 0 0 0 0-16.222z" transform="translate(103.819 200.173) translate(-200.796 -111.061)"/><path d="M281.686 0a8.106 8.106 0 0 0-7.031 4.057l-8.655 14.986a8.111 8.111 0 1 0 14.048 8.111l8.652-14.985a8.113 8.113 0 0 0-7.014-12.169z" transform="translate(103.819 200.173) translate(-230.309 44.953)"/><path d="M385.227 0a8.113 8.113 0 0 0-7.016 12.167l8.652 14.985a8.111 8.111 0 1 0 14.048-8.111l-8.652-14.984a8.105 8.105 0 0 0-7.032-4.057z" transform="translate(103.819 200.173) translate(-281.956 44.954)"/></g><path d="M88.779 460.35v-42.718h-16.222v42.718a8.111 8.111 0 0 0 16.222 0z" transform="translate(34.606 .104) translate(-72.557 -417.632)" fill="#73c3ff"/><path d="M85.762 379.834h-69.213a8.114 8.114 0 0 1-8.111-8.111v-138.423a8.266 8.266 0 0 1 8.111-8.213h51.91a25.709 25.709 0 0 1 22.741 14.174 25.2 25.2 0 0 1 2.673 11.339v121.123a8.114 8.114 0 0 1-8.111 8.111z" transform="translate(-8.438 -224.979)" fill="#44a4ec"/><path d="M88.779 459.888v-43.258h-16.222v43.259a8.111 8.111 0 0 0 16.222 0z" transform="translate(-37.951 -416.526)" fill="#73c3ff"/></svg>