<svg height="512pt" viewBox="0 -10 512 511" width="512pt" xmlns="http://www.w3.org/2000/svg"><path d="M127.48 103.699v-33.813c0-38.262 31.129-69.387 69.387-69.387h118.266c38.258 0 69.387 31.125 69.387 69.387v73.133h-38.504v-73.133c0-17.031-13.855-30.883-30.883-30.883h-118.266c-17.027 0-30.883 13.852-30.883 30.883v72.785h-38.504zm0 0" fill="#636363"/><path d="M165.984 103.699h-28.766c-3.273 0-6.52.121-9.738.348v38.625h38.504zm0 0M346.016 143.02h38.504v-38.973c-3.219-.227-6.465-.348-9.738-.348h-28.766zm0 0" fill="#424242"/><path d="M483.402 491.344h-454.805c-15.793 0-28.598-12.805-28.598-28.598v-182.949c0-75.734 61.395-137.125 137.125-137.125h237.75c75.73 0 137.125 61.391 137.125 137.125v182.949c0 15.793-12.805 28.598-28.598 28.598zm0 0" fill="#eeedee"/><path d="M374.781 142.672h-60.359c75.785 0 137.219 61.434 137.219 137.219v181.691c0 16.438-13.324 29.762-29.758 29.762h60.355c16.438 0 29.762-13.324 29.762-29.762v-181.691c0-75.785-61.434-137.219-137.219-137.219zm0 0" fill="#cccbcc"/><path d="M0 461.582c0 16.438 13.324 29.762 29.762 29.762h452.477c16.438 0 29.762-13.324 29.762-29.762v-37.883h-512zm0 0" fill="#ef2d57"/><path d="M451.641 423.699v37.883c0 16.438-13.324 29.762-29.758 29.762h60.355c16.438 0 29.762-13.324 29.762-29.762v-37.883zm0 0" fill="#bf2445"/><path d="M321.344 262.918h-35.164v-35.164c0-9.027-7.32-16.348-16.348-16.348h-27.664c-9.027 0-16.348 7.32-16.348 16.348v35.164h-35.164c-9.027 0-16.348 7.32-16.348 16.348v27.664c0 9.027 7.32 16.348 16.348 16.348h35.164v35.164c0 9.027 7.32 16.348 16.348 16.348h27.664c9.027 0 16.348-7.32 16.348-16.348v-35.164h35.164c9.027 0 16.348-7.32 16.348-16.348v-27.664c0-9.027-7.32-16.348-16.348-16.348zm0 0" fill="#ef2d57"/></svg>