<svg xmlns="http://www.w3.org/2000/svg" viewBox="0 0 58.018 58.018" enable-background="new 0 0 58.018 58.018"><path fill="#EDEADA" d="M24.192 39.492l-7.778 2.121 2.122-7.778 29.826-29.826h-48.362v54h54v-48.324z"/><path d="M18.716 39.311c.391.391.391 1.023 0 1.414l-.358.358 5.793-1.58-5.627-5.627-1.58 5.792.358-.358c.391-.39 1.024-.39 1.414.001z" fill="#F7E6A1"/><path d="M18.358 41.083l.358-.358c.391-.391.391-1.023 0-1.414s-1.023-.391-1.414 0l-.358.358-.53 1.944 1.944-.53z" fill="#424A60"/><path fill="#EBBA16" d="M51.062 12.622l-5.656-5.657-26.87 26.87-.012.041 5.627 5.627.041-.011z"/><path d="M57.437 3.44l-2.85-2.85c-.775-.775-2.032-.775-2.807 0l-3.546 3.546 5.657 5.657 3.546-3.546c.775-.775.775-2.032 0-2.807z" fill="#ED7161"/><path fill="#F7E6A1" d="M48.234 4.136l5.657 5.657-2.828 2.828-5.657-5.657z"/></svg>