<svg xmlns="http://www.w3.org/2000/svg" viewBox="0 0 53.255 53.255" enable-background="new 0 0 53.255 53.255"><path d="M39.598 2.343c3.124-3.124 8.19-3.124 11.314 0s3.124 8.19 0 11.314l-11.314-11.314z" fill="#D75A4A"/><path fill="#ED8A19" d="M42.426 17.899l-25.914 25.915-.53 4.773 28.566-28.567zM10.325 42.93l4.773-.53 25.914-25.915-4.242-4.242-25.915 25.914zM35.356 10.829l-2.122-2.122-28.566 28.566 4.773-.53z"/><path fill="#C7CAC7" d="M48.79 15.778l2.122-2.121-11.314-11.314-2.122 2.122h.001zM36.062 5.879l-1.414 1.414 11.314 11.313 1.414-1.414z"/><path d="M14.424 44.488l-5.122.569-.109.006h-.002l-.109-.006-.108-.035-.207-.067-.138-.084-.157-.134-.1-.127-.095-.181-.05-.165-.028-.092.01-.11-.01-.11.569-5.122-5.122.569-.111.006-.227-.042-2.866 12.036 2.106-2.106c.391-.391 1.023-.391 1.414 0s.391 1.023 0 1.414l-2.106 2.106 12.03-2.864c-.026-.109-.043-.222-.03-.339l.568-5.122z" fill="#FBCE9D"/><path d="M3.962 49.293c-.391-.391-1.023-.391-1.414 0l-2.106 2.106-.442 1.856 1.856-.442 2.106-2.106c.39-.391.39-1.023 0-1.414z" fill="#38454F"/><path fill="#F2ECBF" d="M48.79 15.778l-11.313-11.313h-.001l-1.414 1.414 11.314 11.313 1.414-1.414z"/><path d="M41.012 16.485l-25.914 25.915-4.773.53.53-4.773 25.915-25.914-1.414-1.414-25.915 25.914-4.773.53-1.133 1.133-.228.957.227.042.111-.006 5.122-.569-.569 5.122.01.11-.01.11.028.092.05.165.095.181.1.127.157.134.138.084.207.067.108.035.109.006h.004l.109-.006 5.122-.569-.569 5.122c-.013.118.004.23.03.339l.963-.229 1.133-1.132.53-4.773 25.914-25.915-1.414-1.415z" fill="#EBBA16"/><path fill="#F2ECBF" d="M45.962 18.606l-11.314-11.313-1.414 1.414 2.122 2.122 1.414 1.414 4.242 4.242 1.414 1.414 2.122 2.121 1.414-1.414z"/></svg>