<svg height="489pt" viewBox="-5 0 489 489.16262" width="489pt" xmlns="http://www.w3.org/2000/svg"><path d="M114.961 433.684c-8.703-1.531-14.516-9.832-12.98-18.535l22.07-125.168-16.289-20.281c-.934 3.48-33.598 100-45.43 133.27l7.352 41.691c3.129 17.383 19.719 28.969 37.117 25.918l108.547-19.199zm0 0" fill="#5eac24"/><path d="M107.762 269.617v.082l16.289 20.281 44.551-252.676-134.039 23.594c-17.434 3.066-29.074 19.688-26 37.121l53.77 304.961c11.84-33.281 44.496-129.793 45.43-133.273zm-21.359-125.422c-3.059-17.41 8.578-34 25.988-37.055 17.406-3.055 33.996 8.582 37.047 25.992 3.055 17.41-8.586 33.996-25.996 37.047-17.402 3.047-33.98-8.582-37.039-25.984zm0 0" fill="#bdfdff"/><path d="M240.074 349.668l38.082 112.797 104.672 18.457c8.703 1.535 17.004-4.277 18.535-12.984l17.414-98.742-63.336-193.68zm0 0" fill="#5eac24"/><path d="M117.172 329.02l-15.203 86.129c-1.531 8.703 4.281 17.004 12.984 18.535l100.395 17.695 44 7.77 18.789 3.309-38.078-112.797-11.367 17.168 11.367-17.168-40.922-121.203c1.891-2.168-49.727 61.363-81.965 100.563zm0 0" fill="#4e901e"/><path d="M457.844 55.477l-267.863-47.203c-8.695-1.535-16.992 4.262-18.539 12.953l-2.84 16.078-44.551 252.676v.039-.039l-6.879 39.039c32.238-39.199 83.855-102.73 81.984-100.555l40.918 121.203 115.367-174.152 63.336 193.672 52.051-295.199c1.52-8.699-4.293-16.98-12.984-18.512zm-172.848 58.879c-3.07 17.402-19.668 29.023-37.07 25.957-17.406-3.07-29.027-19.668-25.961-37.07 3.07-17.406 19.664-29.027 37.07-25.961 17.406 3.07 29.027 19.668 25.961 37.074zm0 0" fill="#46f8ff"/><path d="M259.035 77.281c-17.406-3.066-34 8.555-37.07 25.961-3.066 17.402 8.555 34 25.961 37.07 17.402 3.066 34-8.555 37.07-25.957 3.066-17.406-8.555-34.004-25.961-37.074zm0 0" fill="#ff3051"/><path d="M123.441 170.18c17.41-3.051 29.051-19.637 25.996-37.047-3.051-17.41-19.641-29.047-37.047-25.992-17.41 3.055-29.047 19.645-25.988 37.055 3.059 17.402 19.637 29.031 37.039 25.984zm0 0" fill="#ff6243"/><path d="M459.203 47.594l-267.84-47.23c-13.051-2.297-25.492 6.422-27.793 19.473l-1.863 10.559-128.52 22.625c-21.777 3.855-36.32 24.613-32.504 46.398l61.129 346.656c3.918 21.723 24.656 36.195 46.398 32.383l107.152-18.949 166.078 29.285c1.391.246 2.797.371 4.211.371 11.629-.027 21.566-8.387 23.582-19.84l69.473-393.922c2.27-13.059-6.453-25.496-19.504-27.809zm-423.258 21.184l122.801-21.598-11.383 64.52c-1.961-2.172-4.152-4.125-6.535-5.824-14.121-9.855-32.965-9.57-46.777.711-13.816 10.285-19.5 28.254-14.109 44.605 5.391 16.355 20.641 27.426 37.859 27.484 2.359 0 4.711-.207 7.035-.617 4.043-.77 7.941-2.156 11.559-4.121l-17.191 97.281-5.242-6.527-.215-.176c-.512-.574-1.102-1.07-1.758-1.473-.234-.145-.434-.328-.672-.449-.633-.293-1.301-.5-1.984-.613-.336-.09-.676-.16-1.016-.211l-.586-.109c-.625.027-1.242.133-1.84.32-.145 0-.297 0-.441.07-1.934.586-3.574 1.887-4.582 3.641-.152.293-.281.594-.391.902-.199.371-.371.754-.508 1.152-1.598 5.602-23.199 73.391-34.398 107.586l-49.129-278.688c-2.293-13.078 6.434-25.547 19.504-27.867zm101.602 83.625c-6.238 8.883-17.664 12.473-27.863 8.754-10.199-3.719-16.629-13.82-15.688-24.633.945-10.816 9.031-19.648 19.719-21.543 1.387-.254 2.797-.379 4.207-.379 11.633.023 21.578 8.383 23.594 19.84 1.129 6.277-.301 12.746-3.969 17.961zm128.719 299.832l-149.918-26.398c-4.352-.77-7.254-4.914-6.488-9.266l13.75-77.984c3.664-4.32 66.512-84.969 72.801-93.281zm-160.801 10.465c-13.047 2.266-25.48-6.406-27.863-19.434l-6.863-38.688c.801-.582 29.711-84.969 40.168-118.199l4.633 5.77-21.441 121.598c-2.273 13.063 6.449 25.504 19.504 27.816l55.77 9.832zm288.059 3.848c-.77 4.344-4.91 7.246-9.258 6.488l-100-17.602-35.336-104.559 104.051-157.137 57.598 176zm22.961-130.223l-53.441-163.289c-.953-2.914-3.492-5.027-6.531-5.438-3.039-.41-6.047.953-7.742 3.508l-106.305 160.617-35.367-104.742-.055-.266c-.641-2.969-2.906-5.316-5.848-6.063-2.973-.711-6.094.289-8.098 2.598-.27.313-.512.648-.727 1-4.082 5.527-40 52.098-62.961 81.383l49.914-283.023c.766-4.344 4.906-7.246 9.254-6.488l267.879 47.203c4.352.766 7.254 4.914 6.488 9.262zm0 0M260.426 69.379c-14.113-2.57-28.52 2.613-37.762 13.586-9.238 10.969-11.898 26.051-6.965 39.52 4.93 13.469 16.699 23.27 30.84 25.68 2.32.406 4.676.613 7.031.613 20.742-.023 38.023-15.895 39.805-36.559 1.785-20.66-12.52-39.262-32.949-42.84zm16.695 43.551c-2.203 12.512-13.781 21.137-26.398 19.672-12.621-1.465-21.914-12.508-21.195-25.195.715-12.684 11.195-22.613 23.898-22.645 1.414 0 2.824.125 4.219.367 13.055 2.297 21.777 14.746 19.477 27.801zm0 0"/></svg>