<svg height="512pt" viewBox="0 0 512 512" width="512pt" xmlns="http://www.w3.org/2000/svg"><path d="M31 75h30v362h-30zm0 0M76 30h360v30h-360zm0 0M76 452h360v30h-360zm0 0" fill="#537983"/><path d="M256 452h180v30h-180zm0 0" fill="#3e5959"/><path d="M91 90v332h330v-332zm0 0" fill="#deecf1"/><path d="M256 90h165v332h-165zm0 0" fill="#c5d3dd"/><path d="M391 120v70.602l-39 177.398-96-16-135-21v-211zm0 0" fill="#537983"/><path d="M391 120v70.602l-39 177.398-96-16v-232zm0 0M451 75h30v362h-30zm0 0" fill="#3e5959"/><path d="M196 241c-24.813 0-45-20.188-45-45s20.188-45 45-45 45 20.188 45 45-20.188 45-45 45zm0 0" fill="#ffda2d"/><path d="M321.996 276.988l-10.781 24.023 53.988 59.988 25.797-30v-140.273zm0 0" fill="#6b0"/><path d="M256 30h180v30h-180zm0 0" fill="#3e5959"/><path d="M391 331v61h-270v-61h85.801l49.199-61.5 30-37.5 79.199 99zm0 0" fill="#c3ea21"/><path d="M391 331v61h-135v-122.5l30-37.5 79.199 99zm0 0" fill="#9cdd05"/><g fill="#00c0f1"><path d="M512 90h-91v-90h91zm0 0M512 512h-91v-90h91zm0 0M91 512h-91v-90h91zm0 0M91 90h-91v-90h91zm0 0"/></g></svg>