<svg xmlns="http://www.w3.org/2000/svg" viewBox="0 0 512 512" enable-background="new 0 0 512 512"><path d="M255.999 0c141.388 0 256 114.614 256 256s-114.612 256-256 256c-141.384 0-255.998-114.614-255.998-256s114.614-256 255.998-256z" fill="#FF757C"/><path d="M164.396 237.631c13.181-22.154 33.952-47.869 12.859-86.966-31.053-135.767 112.048-163.294 133.684-107.263 35.209 13.275 34.27 86.359 16.164 124.602-.807 15.736-17.169 29.461 12.4 70.063l2.128-.465-.002.002c-38.36 11.118-136.681 6-177.233.027z" fill="#666"/><path d="M230.178 209.017c-1.318 24.315-9.948 33.494-21.914 39.886-6.088 5.378-51.9 6.82-65.296 28.445-2.794 4.511-4.224 51.979-11.948 73.937 55.996 36.673 193.962 36.673 249.959 0-7.726-21.958-7.064-69.422-9.858-73.933-14.142-22.84-62.287-23.105-67.887-27.772-11.703-6.551-20.11-16.184-21.413-40.563 0 0-17.491 13.569-28.365 11.481-10.878-2.086-23.278-11.481-23.278-11.481z" fill="#FED198"/><path d="M229.594 215.654c6.374 3.792 17.004 15.661 26.952 15.796 9.913.134 23.874-14.523 25.867-15.604-.172-1.382-.315-2.822-.43-4.319l-.163.128-.009.007-.007.002c-.534.419-17.645 13.787-28.352 11.692-10.548-2.064-22.529-11.13-23.241-11.677l-.203-.154c-.11 1.428-.251 2.806-.414 4.129z" fill="#F0B97D"/><path d="M201.996 169.14c10.79 23.107 14.781 32.129 28.182 42.516 0 0 12.4 9.573 23.277 11.703 10.874 2.125 28.365-11.703 28.365-11.703 13.403-10.387 17.39-19.409 28.18-42.516 2.646 1.409 5.411 3.32 7.556.858 2.148-2.463 12.367-34.429 10.528-38.741-1.839-4.315-3.634-1.563-6.372.39.143-.93-2.165 11.551-2.132 9.655.258-15.09-10.347-17.487-13.672-57.412-48.906 48.522-94.592 26.253-110.509 29.505-4.61.939-5.966 12.751-5.115 18.254-17.264-12.321 3.715 37.848 4.154 38.349 2.15 2.463 4.912.551 7.556-.858h.002z" fill="#FED198"/><path d="M208.257 248.894c-16.437 8.782-46.535-1.83-65.29 28.453-2.787 4.507-13.48 51.979-21.208 73.937 55.994 43.175 212.481 43.427 268.479 0-7.726-21.958-16.327-69.428-19.118-73.935-18.799-30.367-51.062-19.687-67.521-28.522l-45.885 93.794-49.459-93.728h.002z" fill="#0E7886"/><g fill="#fff"><path d="M229.911 289.864c14.276 5.089 38.563 5.12 53.626-.02l-25.821 52.782-27.805-52.762zM112.327 281.977c88.599-11.582 123.862 10.649 143.674 28.154-29.446-16.953-85.965-15.833-141.185-5.966l-2.489-22.188zM399.675 281.977c-88.599-11.582-123.859 10.647-143.674 28.151 35.134-20.229 101.156-12.971 141.136-5.651l2.538-22.5z"/></g><path d="M90.479 307.655c62.479-14.237 132.496-18.732 166.472.829 33.977-19.561 102.089-15.066 164.57-.829-3.578 122.916-.593 20.326-5.36 184.384-3.66-.69-102.406-15.377-150.139-1.054-7.948-.004-9.79-.004-17.771 0-52.405-15.242-148.977.408-152.416 1.054-4.922-169.391-1.663-57.037-5.356-184.384z" fill="#15BDB1"/><g fill="#DFE1E3"><path d="M98.368 296.664l.95 9.767c60.355-12.812 125.921-16.137 158.451 2.593l.002-.002c-.115-.088-48.306-36.323-159.401-12.36l-.002.002zM413.634 297.206l-.95 9.767c-60.355-12.812-125.923-16.137-158.451 2.593l-.002-.002c.115-.086 48.306-36.323 159.404-12.36v.002z"/></g><path d="M124.454 357.76l-17.403.93-17.321 1.226c-7.17.512-5.973 13.353 1.171 12.506l18.882-2.236 14.338-1.206c7.17-.606 5.148-11.48.333-11.22zm-2.393 39.948l-26.992 3.155c-5.79.672-4.394 13.571 1.171 12.504l27.073-5.208c5.658-1.09 4.461-11.12-1.252-10.451zm3.431-14.003c7.161-.67 8.623 10.394 1.486 11.306l-34.173 4.366c-7.135.913-8.33-11.833-1.171-12.504l33.858-3.168zm4.771-13.977c8.385-.785 9.556 11.719 1.171 12.504l-39.714 3.72c-8.383.785-9.551-11.719-1.171-12.504l39.714-3.72z" fill="#FED198"/><g fill="#fff"><path d="M122.2 360.602l.611 6.535 4.357-.41c.734-2.447.423-4.758-.655-6.989l-4.315.862.002.002zM129.686 372.751l.692 7.422 4.07-.381c1.44-2.805 1.376-5.468-.743-7.937l-4.022.895.003.001zM124.253 386.624l.611 6.533 4.99-.467c.518-2.397.32-4.727-.655-6.987l-4.946.921zM120.163 401.063l.794 5.17 5.003-.858c.454-1.969.192-3.817-.849-5.532l-4.948 1.217v.003z"/></g><path d="M387.547 357.76l17.403.93 17.321 1.226c7.17.512 5.973 13.353-1.171 12.506l-18.882-2.236-14.338-1.206c-7.171-.606-5.149-11.48-.333-11.22zm2.392 39.948l26.992 3.155c5.79.672 4.394 13.571-1.171 12.504l-27.073-5.208c-5.656-1.09-4.461-11.12 1.252-10.451zm-3.431-14.003c-7.161-.67-8.623 10.394-1.486 11.306l34.173 4.366c7.135.913 8.33-11.833 1.171-12.504l-33.858-3.168zm-4.771-13.977c-8.385-.785-9.556 11.719-1.171 12.504l39.714 3.72c8.383.785 9.551-11.719 1.171-12.504l-39.714-3.72z" fill="#FED198"/><g fill="#fff"><path d="M389.8 360.602l-.611 6.535-4.359-.41c-.734-2.447-.423-4.758.655-6.989l4.315.862v.002zM382.312 372.751l-.692 7.422-4.07-.381c-1.44-2.805-1.376-5.468.743-7.937l4.022.895-.003.001zM387.747 386.624l-.611 6.533-4.99-.467c-.518-2.397-.32-4.727.655-6.987l4.946.921zM391.837 401.063l-.794 5.17-5.003-.858c-.454-1.969-.192-3.817.849-5.532l4.948 1.217v.003z"/></g><path d="M248.45 304.392h17.573v186.589h-17.573v-186.589z" fill="#20D0C2"/></svg>