<svg xmlns="http://www.w3.org/2000/svg" viewBox="0 0 512 512" width="512" height="512"><path fill="#FFD077" d="M10 150h492v312h-492z"/><path fill="#B3D7FC" d="M190 462h312v40h-312zM10 462h40v40h-40z"/><path fill="#C8E7F9" d="M262 222h80v120h-80zM382 222h80v120h-80z"/><path fill="#F0F0F0" d="M10 10h492v140h-492z"/><path d="M130 242c-44.183 0-80 35.817-80 80v180h80v-260zM210 322c0-44.183-35.817-80-80-80v260h80v-180z" fill="#FA9C5F"/><path d="M262 352h80c5.523 0 10-4.478 10-10v-120c0-5.522-4.477-10-10-10h-80c-5.523 0-10 4.478-10 10v120c0 5.522 4.477 10 10 10zm10-120h60v100h-60v-100zM382 352h80c5.523 0 10-4.478 10-10v-120c0-5.522-4.477-10-10-10h-80c-5.523 0-10 4.478-10 10v120c0 5.522 4.477 10 10 10zm10-120h60v100h-60v-100zM502 0h-492c-5.523 0-10 4.478-10 10v492c0 5.522 4.477 10 10 10h492c5.523 0 10-4.478 10-10v-492c0-5.522-4.477-10-10-10zm-482 20h472v120h-472v-120zm20 472h-20v-20h20v20zm80 0h-60v-170c0-35.203 26.122-64.421 60-69.288v239.288zm80 0h-60v-239.288c33.878 4.867 60 34.085 60 69.288v170zm-70-260c-49.626 0-90 40.374-90 90v130h-20v-292h472v252h-190c-5.51 0-10 4.49-10 10s4.49 10 10 10h190v20h-272v-130c0-49.626-40.374-90-90-90zm362 260h-272v-20h272v20zM262 432c5.51 0 10-4.49 10-10s-4.49-10-10-10-10 4.49-10 10 4.49 10 10 10zM85.952 102.734h-22.8v-54.8c0-1.532-.768-2.699-2.3-3.5-1.535-.8-3.367-1.199-5.5-1.199-2.135 0-3.968.399-5.5 1.199-1.535.801-2.301 1.968-2.301 3.5v63.601c0 1.534.666 2.717 2 3.55 1.333.834 2.934 1.25 4.801 1.25h31.6c1.4 0 2.5-.666 3.3-2 .8-1.333 1.2-2.933 1.2-4.8 0-1.866-.4-3.466-1.2-4.8-.8-1.334-1.899-2.001-3.3-2.001zM120.051 44.434c-1.534-.8-3.367-1.199-5.5-1.199-2.135 0-3.967.399-5.5 1.199-1.534.801-2.3 1.968-2.3 3.5v63.601c0 1.534.766 2.717 2.3 3.55 1.533.834 3.365 1.25 5.5 1.25 2.133 0 3.966-.416 5.5-1.25 1.533-.833 2.3-2.016 2.3-3.55v-63.601c0-1.533-.767-2.7-2.3-3.5zM181.95 76.734c5.666-2.466 8.5-7.7 8.5-15.7 0-11.866-6.667-17.8-20-17.8h-20.5c-1.867 0-3.467.417-4.8 1.25-1.335.834-2 2.017-2 3.55v63.6c0 1.268.615 2.367 1.85 3.3 1.233.935 2.883 1.4 4.95 1.4h22.2c6.133 0 11.016-1.716 14.649-5.15 3.633-3.433 5.45-8.883 5.45-16.35v-2.1c0-4.666-.867-8.184-2.6-10.551-1.733-2.365-4.298-4.182-7.699-5.449zm-23.3-19.9h10.5c1.8 0 3.2.7 4.2 2.1 1 1.4 1.5 3.035 1.5 4.9 0 1.867-.5 3.484-1.5 4.85-1 1.367-2.4 2.051-4.2 2.051h-10.5v-13.901zm18 36.7c0 6.134-2.667 9.2-8 9.2h-10v-20h10c5.333 0 8 3.066 8 9.199v1.601zM248.35 84.934c8.065-3.133 12.1-9.899 12.1-20.3 0-14.266-8.2-21.399-24.6-21.399h-20.7c-1.4 0-2.55.467-3.45 1.399-.899.935-1.35 2.034-1.35 3.3v63.601c0 1.534.766 2.717 2.3 3.55 1.533.834 3.365 1.25 5.5 1.25 2.133 0 3.966-.416 5.5-1.25 1.533-.833 2.3-2.016 2.3-3.55v-24.101h6.601l13.699 26.601c1 1.935 2.666 2.899 5 2.899 2.333 0 4.551-.865 6.65-2.6 2.1-1.732 3.15-3.565 3.15-5.5 0-.732-.168-1.333-.5-1.8l-12.2-22.1zm-5.8-11.65c-1.535 1.435-3.768 2.149-6.7 2.149h-9.9v-18.6h9.9c2.933 0 5.165.717 6.7 2.15 1.532 1.434 2.3 3.816 2.3 7.149 0 3.337-.768 5.72-2.3 7.152zM312.949 47.834c-.534-1.666-1.75-2.95-3.649-3.85-1.9-.9-4.085-1.351-6.551-1.351-2.467 0-4.649.45-6.55 1.351-1.899.899-3.117 2.184-3.649 3.85l-18.601 61c-.134.534-.2.9-.2 1.1 0 1.734 1.083 3.234 3.25 4.5 2.166 1.268 4.416 1.9 6.75 1.9 2.866 0 4.566-.966 5.101-2.9l3.399-12.5h21.101l3.399 12.5c.533 1.935 2.233 2.9 5.101 2.9 2.333 0 4.583-.633 6.75-1.9 2.165-1.266 3.25-2.766 3.25-4.5 0-.199-.067-.565-.2-1.1l-18.701-61zm-17.5 41.1l7.3-26.8 7.301 26.8h-14.601zM385.648 84.934c8.065-3.133 12.1-9.899 12.1-20.3 0-14.266-8.2-21.399-24.6-21.399h-20.7c-1.4 0-2.55.467-3.45 1.399-.899.935-1.35 2.034-1.35 3.3v63.601c0 1.534.766 2.717 2.3 3.55 1.533.834 3.365 1.25 5.5 1.25 2.133 0 3.966-.416 5.5-1.25 1.533-.833 2.3-2.016 2.3-3.55v-24.101h6.601l13.699 26.601c1 1.935 2.666 2.899 5 2.899 2.333 0 4.551-.865 6.65-2.6 2.1-1.732 3.15-3.565 3.15-5.5 0-.732-.168-1.333-.5-1.8l-12.2-22.1zm-5.799-11.65c-1.535 1.435-3.768 2.149-6.7 2.149h-9.9v-18.6h9.9c2.933 0 5.165.717 6.7 2.15 1.532 1.434 2.3 3.816 2.3 7.149-.001 3.337-.768 5.72-2.3 7.152zM464.799 45.134c-2.367-1.266-4.718-1.899-7.051-1.899-2 0-3.5.967-4.5 2.899l-13.899 25.7-14-25.7c-.601-1.065-1.2-1.815-1.8-2.25-.601-.433-1.5-.649-2.7-.649-2.335 0-4.685.634-7.05 1.899-2.367 1.268-3.551 2.768-3.551 4.5 0 .468.066.835.2 1.101l20.7 34.3c.266.399.4.867.4 1.399v25.101c0 1.534.766 2.717 2.3 3.55 1.532.834 3.365 1.25 5.5 1.25 2.133 0 3.966-.416 5.5-1.25 1.532-.833 2.3-2.016 2.3-3.55v-25.101c0-.532.133-1 .4-1.399l20.6-34.3c.133-.266.2-.633.2-1.101.001-1.733-1.184-3.233-3.549-4.5z"/><circle cx="90" cy="392" r="10"/><circle cx="170" cy="392" r="10"/></svg>