<svg xmlns="http://www.w3.org/2000/svg" width="199.938" height="183.947" viewBox="0 0 199.938 183.947"><g><path d="M99.371 34.495c8.07-19.127 26.505-32.495 47.947-32.495 28.882 0 49.682 24.713 52.301 54.16 0 0 1.412 7.31-1.7 20.47a90.507 90.507 0 0 1-27.584 46l-70.964 63.317-69.771-63.322a90.49 90.49 0 0 1-27.584-46c-3.107-13.16-1.7-20.47-1.7-20.47 2.619-29.446 23.421-54.155 52.305-54.155 21.446 0 38.679 13.368 46.75 32.495z" transform="translate(0 -2)" fill="#f0e4e2"/><path d="M9 51.065a4 4 0 0 1-4-4 40.034 40.034 0 0 1 39.988-39.987 4 4 0 0 1 0 8 32.028 32.028 0 0 0-31.988 31.988 4 4 0 0 1-4 3.999z" transform="translate(0 -2) translate(14.994 15.228)" fill="#ed7161"/></g></svg>