<svg xmlns="http://www.w3.org/2000/svg" viewBox="0 0 512 512" enable-background="new 0 0 512 512"><path d="M512 35.31v317.793c-.057 19.478-15.833 35.253-35.31 35.31h-112.552l-108.138 123.587-108.138-123.586h-112.552c-19.477-.057-35.253-15.833-35.31-35.311v-317.793c.057-19.477 15.833-35.253 35.31-35.31h441.38c19.477.057 35.253 15.833 35.31 35.31z" fill="#CC4B4C"/><path d="M132.414 185.379h17.655c9.751 0 17.655 7.904 17.655 17.655v88.276c0 9.751-7.904 17.655-17.655 17.655h-17.655c-9.751 0-17.655-7.905-17.655-17.655v-88.276c0-9.75 7.904-17.655 17.655-17.655z" fill="#67B9CC"/><path d="M203.034 195.464v100.646c.01 2.733 1.283 5.307 3.447 6.975 11.745 9.278 26.21 14.444 41.175 14.708h84.039c9.1.043 17.594-4.552 22.54-12.19 21.053-32.486 35.543-68.779 42.652-106.831 1.277-7.747-.919-15.663-6.006-21.644-5.087-5.981-12.548-9.42-20.399-9.403h-27.349c-11.863-.297-22.466-7.476-27.146-18.38-4.475-13.746 4.434-26.266 8.411-38.963 4.238-13.532 13.448-57.679-12.471-57.416-6.487.125-12.262 4.141-14.635 10.18-11.266 28.228-45.594 91.46-86.351 117.727-4.948 3.199-7.928 8.698-7.907 14.591z" fill="#E6E7E8"/></svg>