<svg xmlns="http://www.w3.org/2000/svg" viewBox="0 0 50 50" enable-background="new 0 0 50 50"><path d="M24.85 10.126c2.018-4.783 6.628-8.125 11.99-8.125 7.223 0 12.425 6.179 13.079 13.543 0 0 .353 1.828-.424 5.119-1.058 4.482-3.545 8.464-6.898 11.503l-17.747 15.834-17.448-15.835c-3.353-3.038-5.84-7.021-6.898-11.503-.777-3.291-.424-5.119-.424-5.119.654-7.364 5.856-13.543 13.079-13.543 5.363 0 9.673 3.343 11.691 8.126z" fill="#C03A2B"/><path d="M6 18.078c-.553 0-1-.447-1-1 0-5.514 4.486-10 10-10 .553 0 1 .447 1 1s-.447 1-1 1c-4.411 0-8 3.589-8 8 0 .553-.447 1-1 1z" fill="#ED7161"/></svg>