<svg height="512pt" viewBox="-16 0 512 512" width="512pt" xmlns="http://www.w3.org/2000/svg"><g fill="#deecf1"><path d="M0 226h60v30h-60zm0 0M23.32 153.527l45.004 30-16.641 24.961-45.004-30zm0 0M51.668 273.52l16.641 24.965-45.004 30-16.641-24.965zm0 0"/></g><path d="M420 226h60v30h-60zm0 0M456.672 153.543l16.641 24.961-45.004 30-16.641-24.965zm0 0M428.34 273.531l45.004 30-16.641 24.965-45-30zm0 0" fill="#c5d3dd"/><path d="M330 196v-196h-240v316h240v-60l30-30.902zm-60 0l-30 29.098 30 30.902h-120v-196h120zm0 0" fill="#25d9f8"/><path d="M360 225.098l-30 30.902v60h-120v-60h60l-30-30.902 30-29.098v-136h-60v-60h120v196zm0 0" fill="#00c0f1"/><path d="M390 196v316h-240v-316h120v60h-60v196h120v-256zm0 0M225 196h45v60h-45zm0 0" fill="#fdbf00"/><path d="M390 196v316h-121v-60h61v-256zm0 0" fill="#ff9100"/></svg>