<svg xmlns="http://www.w3.org/2000/svg" viewBox="0 0 60 60" enable-background="new 0 0 60 60"><path d="M35 24h-10v-8c0-2.761 2.239-5 5-5s5 2.239 5 5v8z" stroke="#949493" stroke-width="2" stroke-linecap="round" stroke-miterlimit="10" fill="none"/><path d="M30 53c-14.359 0-26-11.641-26-26s11.641-26 26-26 26 11.641 26 26c0 7.135-2.874 13.599-7.528 18.297M30 53l-6 6M30 53l-6-6" stroke="#38454F" stroke-width="2" stroke-linecap="round" stroke-linejoin="round" stroke-miterlimit="10" fill="none"/><path fill="#EB7937" d="M20 22h20v17h-20z"/><path d="M33 29c0-1.657-1.343-3-3-3s-3 1.343-3 3c0 1.317.854 2.424 2.035 2.827l-.035.173v3c0 .553.448 1 1 1s1-.447 1-1v-3l-.035-.173c1.181-.403 2.035-1.51 2.035-2.827z" fill="#fff"/></svg>