<svg xmlns="http://www.w3.org/2000/svg" viewBox="0 0 511.999 511.999" enable-background="new 0 0 511.999 511.999"><path d="M412.41 0h-312.821c-52.058 0-94.257 42.201-94.257 94.257v205.172c0 52.057 42.201 94.257 94.257 94.257h44.894c2.136 0 3.867 1.731 3.867 3.867v101.207c0 11.966 14.637 17.768 22.834 9.05l106.188-112.906c.731-.778 1.751-1.218 2.818-1.218h132.22c52.057 0 94.257-42.201 94.257-94.257v-205.172c0-52.056-42.201-94.257-94.257-94.257z" fill="#EC5569"/><path d="M188.005 358.509c0-2.249-1.676-4.072-3.744-4.072h-43.462c-50.396 0-91.25-44.439-91.25-99.257v-216.057c0-9.276 1.174-18.253 3.361-26.77-28.421 16.234-47.578 46.831-47.578 81.904v205.172c0 52.056 42.201 94.257 94.257 94.257h44.894c2.136 0 3.867 1.732 3.867 3.867v101.207c0 11.966 14.637 17.768 22.834 9.05l16.82-17.885v-131.416h.001z" fill="#E63950"/><path d="M361.908 122.325c-23.931-23.931-62.731-23.931-86.663 0l-13.518 13.518c-3.223 3.223-8.45 3.223-11.673 0l-13.302-13.302c-23.931-23.931-62.731-23.931-86.663 0-23.931 23.931-23.931 62.731 0 86.663l99.973 99.973c3.223 3.223 8.45 3.223 11.673 0l100.172-100.189c23.932-23.932 23.932-62.731.001-86.663z" fill="#EC5569"/><path d="M361.908 122.325c-23.931-23.931-62.731-23.931-86.663 0l-13.518 13.518c-3.223 3.223-8.45 3.223-11.673 0l-13.302-13.302c-23.931-23.931-62.731-23.931-86.663 0-23.931 23.931-23.931 62.731 0 86.663l99.973 99.973c3.223 3.223 8.45 3.223 11.673 0l100.172-100.189c23.932-23.932 23.932-62.731.001-86.663z" fill="#FFF5F5"/><path d="M182.145 209.204c-23.931-23.931-23.931-62.731 0-86.663 7.85-7.85 17.304-13.108 27.303-15.807-20.486-5.532-43.278-.274-59.358 15.807-23.931 23.931-23.931 62.731 0 86.663l99.973 99.973c3.223 3.223 8.45 3.223 11.673 0l10.19-10.192-89.781-89.781z" fill="#DCE6EB"/></svg>