<svg xmlns="http://www.w3.org/2000/svg" viewBox="0 0 502.001 502.001" enable-background="new 0 0 502.001 502.001"><path d="M445.317 133.126h-388.634c-25.782 0-46.683-20.901-46.683-46.683s20.901-46.683 46.683-46.683h388.634c25.782 0 46.683 20.901 46.683 46.683s-20.901 46.683-46.683 46.683z" fill="#50A5DC"/><path d="M445.317 143.126h-388.634c-31.255 0-56.683-25.428-56.683-56.683s25.428-56.683 56.683-56.683h388.635c31.254 0 56.682 25.428 56.682 56.683s-25.428 56.683-56.683 56.683zm-388.634-93.366c-20.227 0-36.683 16.456-36.683 36.683s16.456 36.683 36.683 36.683h388.635c20.227 0 36.683-16.456 36.683-36.683s-16.457-36.683-36.684-36.683h-388.634z"/><path d="M445.317 297.684h-388.634c-25.782 0-46.683-20.901-46.683-46.684s20.901-46.683 46.683-46.683h388.634c25.782 0 46.683 20.901 46.683 46.683s-20.901 46.684-46.683 46.684z" fill="#50A5DC"/><path d="M445.317 307.684h-388.634c-31.255 0-56.683-25.429-56.683-56.684s25.428-56.683 56.683-56.683h388.635c31.254 0 56.682 25.428 56.682 56.683s-25.428 56.684-56.683 56.684zm-388.634-93.367c-20.227 0-36.683 16.456-36.683 36.683s16.456 36.683 36.683 36.683h388.635c20.226.001 36.682-16.456 36.682-36.683s-16.456-36.683-36.683-36.683h-388.634z"/><path d="M445.317 462.24h-388.634c-25.782 0-46.683-20.901-46.683-46.683s20.901-46.683 46.683-46.683h388.634c25.782 0 46.683 20.901 46.683 46.683s-20.901 46.683-46.683 46.683z" fill="#50A5DC"/><path d="M445.317 472.24h-388.634c-31.255 0-56.683-25.427-56.683-56.683s25.428-56.683 56.683-56.683h388.635c31.255 0 56.683 25.428 56.683 56.683-.001 31.256-25.429 56.683-56.684 56.683zm-388.634-93.366c-20.227 0-36.683 16.456-36.683 36.683s16.456 36.683 36.683 36.683h388.635c20.227 0 36.683-16.456 36.683-36.683s-16.456-36.683-36.683-36.683h-388.635zM230.576 87.106h-172.726c-5.523 0-10-4.477-10-10s4.477-10 10-10h172.726c5.523 0 10 4.477 10 10s-4.477 10-10 10zM297.099 87.106h-19.84c-5.523 0-10-4.477-10-10s4.477-10 10-10h19.84c5.523 0 10 4.477 10 10s-4.477 10-10 10z"/></svg>