<svg height="511pt" viewBox="-6 0 511 511.997" width="511pt" xmlns="http://www.w3.org/2000/svg"><path d="M491.891 229.836c0 122.586-99.367 221.953-221.945 221.953-122.566 0-221.945-99.367-221.945-221.953 0-122.578 99.379-221.934 221.945-221.934 30.066 0 58.734 5.973 84.883 16.813.465.191.926.379 1.379.582 70.758 29.863 122.789 95.383 133.598 174.039l.012.094c1.367 9.938 2.074 20.094 2.074 30.406zm0 0" fill="#f8a28b"/><path d="M489.816 199.43l-.012-.094c-10.809-78.656-62.844-144.176-133.598-174.039-.453-.203-.914-.391-1.379-.582-26.148-10.84-54.813-16.813-84.883-16.813-12.742 0-25.227 1.09-37.379 3.152 16.512 2.801 32.406 7.418 47.461 13.66.465.191.93.379 1.383.582 70.754 29.863 122.785 95.383 133.594 174.039l.012.094c1.371 9.938 2.074 20.094 2.074 30.406 0 109.84-79.777 201.02-184.543 218.801 12.16 2.063 24.652 3.152 37.398 3.152 122.578 0 221.945-99.367 221.945-221.953 0-10.313-.707-20.469-2.074-30.406zm0 0" fill="#f58c79"/><path d="M21.203 249.277l126.086-84.539c8.98-6.027 19.859-8.414 30.5-6.695 10.66 1.719 21.57-.637 30.574-6.676l16.871-11.324 94.5 141.043-23.188 101.414c-1.801 7.895-2.691 15.898-2.691 23.867 0 20.621 5.953 40.977 17.379 58.445 2.809 4.297 4.148 9.16 4.148 13.957 0 8.203-3.93 16.246-11.191 21.117-9.789 6.57-22.766 5.348-31.191-2.93l-15.02-14.73c-17.18-16.871-30.426-37.418-38.75-60.141l-8.145-22.203-83.867 56.109c-13.395 8.98-31.516 5.055-40.07-8.84-8.246-13.383-4.012-31.063 8.984-39.773.156-.109.168-.277.113-.406-.07-.137-.23-.23-.406-.156-3.313 1.293-6.781 1.918-10.219 1.918-5.492 0-10.934-1.602-15.586-4.645-3.207-2.102-6.047-4.895-8.289-8.32-4.332-6.625-5.621-14.391-4.203-21.609 2.219-11.375 10.387-17.234 11.988-18.34.273-.188.348-.57.156-.859l-.02-.02c-.176-.254-.543-.328-.805-.16-2.285.563-4.613.828-6.941.828-5.68 0-11.328-1.633-16.129-4.73-3.25-2.102-6.121-4.883-8.344-8.289-8.719-13.328-5.113-31.297 8.059-40.125.328-.227.652-.449.977-.66.188-.148.242-.395.145-.563l-.102-.105c-.148-.117-.379-.125-.566.02-8.188 2.824-17.094 1.539-24.262-3.16-3.301-2.145-6.227-5.031-8.543-8.574-8.723-13.348-5.117-31.313 8.047-40.145zm0 0" fill="#fdd7bd"/><path d="M489.816 199.43l-90.637 62.348-54.254 36.379c-6.25 4.191-14.664 2.453-18.805-3.879l-105.922-161.934c-4.141-6.344-2.422-14.867 3.836-19.07l53.191-35.66 78.98-52.32c70.758 29.867 122.789 95.387 133.598 174.043l.012.094zm0 0" fill="#87dbff"/><path d="M224.031 113.277l53.191-35.668 121.957 184.172-54.25 36.379c-6.25 4.191-14.676 2.453-18.816-3.883l-105.918-161.938c-4.141-6.336-2.422-14.859 3.836-19.063zm0 0" fill="#6fc7ff"/><g fill="#fac5aa"><path d="M70.035 404.086l41.953-22.73c5.953-3.219 13.332-1.539 17.336 3.945l-33.078 21.672c-.07-.137-.23-.234-.406-.16-3.313 1.297-6.781 1.922-10.219 1.922-5.496 0-10.934-1.602-15.586-4.648zm0 0M45.793 350.875l41.043-22.223c5.953-3.227 13.332-1.551 17.336 3.938l-33.078 21.668-1.426.68c-.176-.254-.543-.328-.805-.16-2.285.566-4.613.828-6.941.828-5.68 0-11.332-1.633-16.129-4.73zm0 0M21.695 297.992l36.148-19.582c5.945-3.215 13.32-1.539 17.336 3.949l-28.652 18.773c-.148-.117-.379-.125-.566.02-8.188 2.824-17.098 1.539-24.266-3.16zm0 0"/></g><path d="M498.441 205.023c.234-.953.309-1.953.172-2.961-1.25-9.094-3.066-18.18-5.395-27.012l-.066-.281-.016-.059-.012-.047-.012-.043v-.008c-12.086-48.977-40.617-93.316-80.344-124.863-40.992-32.547-90.383-49.75-142.832-49.75-61.391 0-119.109 23.906-162.52 67.316-42.996 42.996-66.848 100.035-67.297 160.781l-23.207 15.367c-10.281 6.805-16.414 18.234-16.414 30.574 0 7.199 2.105 14.191 6.094 20.223 5.434 8.199 13.621 13.488 22.539 15.484-2.727 5.184-4.215 11.023-4.215 17.086 0 7.203 2.109 14.195 6.098 20.207 5.422 8.191 13.617 13.484 22.543 15.484-2.73 5.188-4.219 11.031-4.219 17.098 0 7.195 2.105 14.184 6.094 20.211 5.426 8.188 13.621 13.477 22.543 15.473-2.727 5.184-4.219 11.027-4.219 17.09 0 7.207 2.117 14.199 6.109 20.219 5.406 8.16 13.664 13.727 23.258 15.676 2.453.496 4.922.742 7.371.742 7.117 0 14.086-2.082 20.156-6.102l39.352-26.059c3.957 1.918 7.992 3.73 12.035 5.402 14.172 5.875 28.973 10.297 44.043 13.207 7.336 11.879 16.109 22.836 26.156 32.574l15.09 14.629c6.211 6.008 14.375 9.313 22.996 9.313 6.488 0 12.789-1.898 18.227-5.496 9.258-6.133 14.789-16.43 14.789-27.543 0-6.504-1.902-12.805-5.492-18.207-1.164-1.766-2.258-3.582-3.305-5.418 71.23-13.984 131.703-60.816 163.137-127.004 1.871-3.941.195-8.656-3.746-10.527-3.941-1.871-8.656-.195-10.527 3.746-29.84 62.832-87.754 106.945-155.742 119.016-6.453-17.637-7.715-37.078-3.469-55.398l19.262-83.227c3.027 3.238 6.961 5.469 11.391 6.371 1.449.293 2.902.441 4.348.441 4.184 0 8.277-1.227 11.844-3.59l132.586-87.813c.242 4.156.367 8.328.367 12.496 0 19.754-2.691 39.32-7.992 58.148-1.184 4.199 1.262 8.563 5.461 9.746.719.203 1.438.297 2.148.297 3.449 0 6.617-2.273 7.602-5.758 5.695-20.223 8.582-41.227 8.582-62.434 0-8.309-.469-16.645-1.352-24.82zm-95.047 46.512l-113.789-169.703 67.02-44.379c59.383 25.996 104.508 78.418 121.16 141.02l.016.063.031.145c1.691 6.871 3.023 13.875 4.012 20.898zm-217.863 175.055l21.086-13.965 4.754 12.809c1.461 3.934 3.078 7.816 4.832 11.641-9.578-2.477-18.988-5.613-28.117-9.398-.852-.352-1.703-.723-2.555-1.086zm103.266-44.988c-5.465 23.594-3.105 48.801 6.648 70.969l.008.016.055.117c2.559 5.793 5.637 11.434 9.164 16.777 1.875 2.82 2.863 6.098 2.863 9.48 0 5.797-2.883 11.168-7.711 14.367-2.836 1.875-6.125 2.871-9.504 2.871-4.496 0-8.758-1.73-12-4.863l-15.082-14.621c-9.898-9.598-18.453-20.48-25.43-32.34l-.191-.313c-4.484-7.664-8.328-15.781-11.434-24.129l-8.215-22.145c-1.52-4.09-6.063-6.176-10.156-4.66l-.246.105c-.27.074-.633.254-1.109.555l-.16.098-.102.063-84.27 55.809c-4.641 3.07-10.199 4.156-15.656 3.047-5.457-1.109-10.152-4.273-13.23-8.922-2.277-3.426-3.477-7.398-3.477-11.484 0-7.02 3.492-13.527 9.344-17.402l7.195-4.758.008-.008.121-.082 16.32-10.809c3.637-2.41 4.633-7.313 2.223-10.949-2.41-3.637-7.313-4.633-10.949-2.227l-16.43 10.883c-9.574 6.246-22.473 3.59-28.781-5.938-2.27-3.43-3.473-7.398-3.473-11.48 0-7.031 3.496-13.539 9.348-17.41l23.637-15.656c3.637-2.406 4.641-7.305 2.234-10.949-2.406-3.637-7.309-4.637-10.949-2.234l-16.422 10.875c-9.574 6.258-22.484 3.602-28.797-5.941-2.27-3.422-3.469-7.391-3.469-11.477 0-7.027 3.488-13.531 9.34-17.406l23.641-15.66c3.641-2.406 4.641-7.305 2.234-10.945-2.402-3.641-7.309-4.641-10.949-2.234l-16.336 10.809c-9.578 6.344-22.535 3.715-28.879-5.863-2.273-3.43-3.473-7.406-3.473-11.496 0-7.023 3.492-13.527 9.336-17.398l57.375-37.992c3.641-2.41 4.637-7.313 2.227-10.953-2.41-3.637-7.316-4.633-10.949-2.223l-18.016 11.926c6.469-112.25 99.824-201.598 213.664-201.598 25 0 49.246 4.207 72.086 12.367l-121.258 80.297c-9.891 6.57-12.609 19.965-6.059 29.863l.703 1.063-10.367 6.875c-5.813 3.84-12.555 5.875-19.496 5.875-1.879 0-3.754-.152-5.594-.449-12.688-2.035-25.578.75-36.305 7.852l-41.16 27.258c-3.637 2.41-4.633 7.309-2.223 10.949 1.52 2.297 4.031 3.539 6.594 3.539 1.5 0 3.012-.426 4.355-1.313l41.16-27.258c7.41-4.902 16.316-6.828 25.063-5.426 2.66.43 5.387.648 8.109.648 10.051 0 19.805-2.938 28.219-8.5l10.371-6.871 87.199 131.66zm53.512-89.609c-1.273.844-2.805 1.141-4.305.832-1.508-.305-2.801-1.18-3.652-2.465l-101.383-153.078-.02-.031-.023-.031-5.043-7.613c-1.746-2.641-1.016-6.223 1.617-7.973l46.93-31.074 113.789 169.703zm0 0"/></svg>