<svg height="511pt" viewBox="-12 0 511 511.89189" width="511pt" xmlns="http://www.w3.org/2000/svg"><path d="M224.848 428.691h207.598l-7.598-135.199c-.602-9.398-7.203-17.398-16.402-19.801l-42.598-10.801-25.602-12.598-11.801 24.199c-.801 1.801-2.801 3-4.801 3h-18.398c-1.602 0-3-.602-4-1.801v75.801c0 10-8.199 18.199-18.199 18.199h-82.199l-1.402 23.402v15.398h24.801c5.602 0 10 4.398 10 10s-3.801 10.199-9.398 10.199zm0 0" fill="#60bae2"/><path d="M366.047 263.094l-12.602 31.199c-1 2.398-3.801 3.598-6.199 2.598-.801-.398-1.398-.797-2-1.398l-16.602-20.801 11.801-24.199zm0 0" fill="#e9e9ea"/><path d="M372.848 139.492l-3.602.199.199 3.602v37.801c0 1.199 0 2.398-.199 3.598 12.398 2 24.199-6.398 26.199-19 2-12.398-6.398-24.199-19-26.199h-3.598zm0 0M259.645 181.094v-37.602c0-1.199 0-2.398.203-3.602-12.402-2.199-24.203 6.203-26.402 18.801-2.199 12.402 6.199 24.199 18.801 26.402 2.602.398 5 .398 7.602 0-.203-1.402-.203-2.602-.203-4zm0 0M314.445 235.891c-4.199 0-8.598-.598-12.801-1.598v41.598c1 1.203 2.402 1.801 4 1.801h18.402c2 0 3.801-1.199 4.801-3l11.797-24.199v-21c-8.199 4.199-17 6.398-26.199 6.398zm0 0M369.246 131.492c0-1.602-1.199-2.801-2.801-2.801-22.801-.598-34.801-9.598-39.398-14.199-1.199-1.199-3-1.199-4.199 0l-.203.199c-20 25.199-49.598 21.602-59.398 19.602-1.602-.402-3.199.598-3.398 2.199v44.602c0 3.598.398 7.199 1 10.797h22.598c10 0 18.199 8.203 18.199 18.203v24.199c4.203 1 8.402 1.598 12.801 1.598 30.199 0 54.602-24.598 54.801-54.797v-49.602000000000004zm0 0" fill="#f9d0b4"/><path d="M256.246 139.492c1.199 0 2.398 0 3.602.199v-2.598c0-1.602 1.398-3 3-2.801h.598c10 2 39.402 5.598 59.402-19.602 1-1.199 2.797-1.398 4.199-.398l.199.199c4.602 4.602 16.602 13.602 39.398 14.199 1.602 0 2.801 1.402 2.801 2.801v8.199c7-1.199 14.199 1.199 19.402 6.199v-41.199c0-17.199-14-31.199-31.203-31.199-5.598 0-11.199 1.602-16 4.398-5.598-9.398-15.797-15.199-26.797-15.398h-16c-31.203 0-56.402 25.398-56.602 56.602v25.398c3.801-3.199 8.801-5 14-5zm0 0" fill="#6d6c6b"/><path d="M470.047 428.691h-451.199c-7.402 0-13.203 6-13.203 13.199 0 7.402 6 13.203 13.203 13.203h451c7.398 0 13.199-6 13.199-13.203.199-7.199-5.801-13.199-13-13.199zm0 0" fill="#c1814c"/><path d="M26.445 455.293h436v51.598h-436zm0 0" fill="#b26e3b"/><path d="M66.645 428.691h41.602c-.398-11.199-9.602-20-20.801-20-11.199 0-20.398 8.801-20.801 20zm0 0" fill="#60bae2"/><path d="M283.445 191.891h-193.398c-10 0-18.199 8.203-18.199 18.203v141.398c0 10 8.199 18.199 18.199 18.199h83.398v-77.801c0-7.398 6-13.398 13.402-13.398 7.398 0 13.398 6 13.398 13.398v78h83.398c10 0 18.203-8.199 18.203-18.199v-141.398c-.203-10.199-8.402-18.402-18.402-18.402zm0 0" fill="#d3d3dd"/><path d="M186.645 278.891c-7.398 0-13.199 6-13.199 13.203v136.398h26.602v-136.398c0-7.203-6-13.203-13.402-13.203zm0 0" fill="#e9e9ea"/><path d="M151.047 408.691c-5.602 0-10 4.402-10 10 0 5.602 4.398 10 10 10h22.398v-20zm0 0M224.848 408.691h-24.801v20h24.801c5.598 0 10-4.398 10-10 0-5.598-4.402-10-10-10zm0 0" fill="#d3d3dd"/><path d="M283.445 191.891h-193.398c-10 0-18.199 8.203-18.199 18.203v5.398h230v-5.398c-.203-10-8.402-18.203-18.402-18.203zm0 0" fill="#e9e9ea"/><path d="M164.246 103.094h-2.801c-34.199 0-61.801-27.602-61.801-61.801 0-12 3.402-23.602 10-33.801.602-.801.402-1.801-.398-2.398-.398-.203-.801-.402-1.199-.203-33.602 6-56 38.203-49.801 71.801 6.199 33.602 38.199 56 71.801 49.801 14-2.602 26.598-9.801 36-20.602.598-.797.598-1.797-.199-2.398-.602-.199-1-.398-1.602-.398zm0 0" fill="#ffae2c"/><path d="M184.047 30.492c-9-1.801-15.801-8.602-17.602-17.602 0-.199-.199-.398-.398-.398l-.402.398c-1.797 9-8.598 15.801-17.598 17.602-.199 0-.402.199-.402.398 0 .203.203.203.402.402 9 1.801 15.801 8.598 17.598 17.598 0 .203.203.402.402.402l.398-.402c1.801-9 8.602-15.797 17.602-17.598.199 0 .398-.199.398-.402 0-.398-.199-.398-.398-.398zm0 0" fill="#fcd770"/><path d="M435.645 234.293h-17.398c-2.801 0-5-2.199-5-5s2.199-5 5-5h17.398c2.801 0 5 2.199 5 5s-2.199 5-5 5zm0 0M427.047 243.094c-2.801 0-5-2.203-5-5v-17.402c0-2.801 2.199-5 5-5s5 2.199 5 5v17.402c0 2.598-2.199 5-5 5zm0 0" fill="#6dcc6d"/><path d="M200.047 82.492c-1.402 0-2.602-.602-3.602-1.398-.199-.203-.398-.402-.598-.801-.203-.199-.402-.602-.402-.801-.199-.398-.199-.602-.199-1l-.199-1c0-.398 0-.602.199-1l.199-1c.199-.398.199-.602.402-.801l.598-.801c1.402-1.398 3.602-1.797 5.402-1l.797.402.801.598c.199.203.402.402.602.801.199.199.398.602.398.801.199.199.199.602.199 1s0 .602.203 1c0 .398 0 .602-.203 1l-.199 1c-.199.398-.199.602-.398.801s-.402.598-.602.801c-.199.199-.398.398-.801.598-.199.199-.598.402-.797.402-.402.199-.602.199-1 .199-.203.199-.402.199-.801.199zm0 0" fill="#60bae2"/><path d="M462.445 262.691c-1.398 0-2.598-.598-3.598-1.398-.203-.199-.402-.402-.602-.801-.199-.199-.398-.602-.398-.801-.203-.398-.203-.598-.203-1l-.199-1c0-.398 0-.598.199-1l.203-1c.199-.398.199-.598.398-.801l.602-.797c1.398-1.402 3.598-1.801 5.398-1l.801.398.801.602c.199.199.398.398.598.797.199.203.402.602.402.801.199.199.199.602.199 1 0 .402 0 .602.199 1 0 .402 0 .602-.199 1l-.199 1c-.203.402-.203.602-.402.801l-.598.801c-.203.199-.402.398-.801.598-.199.203-.602.402-.801.402-.398.199-.602.199-1 .199-.199.199-.398.199-.801.199zm0 0" fill="#f75c64"/><g fill="#231f20"><path d="M470.047 460.293h-451.199c-10.203 0-18.402-8.199-18.402-18.199 0-10.203 8.199-18.402 18.402-18.402h451c10.199 0 18.398 8.199 18.398 18.402 0 10-8.199 18.199-18.199 18.199zm-451.199-26.602c-4.602 0-8.402 3.801-8.402 8.199 0 4.602 3.801 8.402 8.402 8.402h451c4.598 0 8.398-3.801 8.398-8.402 0-4.598-3.801-8.199-8.398-8.199zm0 0M462.445 511.891h-436c-2.801 0-5-2.199-5-5v-51.598c0-2.801 2.199-5 5-5h436c2.801 0 5 2.199 5 5v51.598c0 2.801-2.199 5-5 5zm-431-10h426v-41.598h-426zm0 0M372.848 190.094c-1.402 0-3-.203-4.402-.402-2.598-.398-4.398-2.598-4.199-5.199l.199-3.398v-37.602c0-1.199 0-2.199-.199-3.398-.199-2.602 1.602-4.801 4.199-5.203 1.402-.199 3-.398 4.402-.398 15.398 0 27.797 12.398 27.797 27.801 0 15.398-12.398 27.801-27.797 27.801zm1.398-45.602v35.602c9.801-.801 17.199-9.402 16.398-19.203-.797-8.797-7.797-15.598-16.398-16.398zm0 0M256.246 190.094c-15.398 0-27.801-12.402-27.801-27.801 0-15.402 12.402-27.801 27.801-27.801 1.398 0 3 .199 4.398.398 2.602.402 4.402 2.602 4.203 5.203l-.203 3.398v37.801c0 1.199 0 2.199.203 3.398.199 2.602-1.602 4.801-4.203 5.199-1.598.203-3 .203-4.398.203zm-1.602-45.602c-9.797.801-17.199 9.398-16.398 19.199.801 8.602 7.602 15.602 16.398 16.402zm0 0M388.645 150.891c-1.199 0-2.598-.598-3.398-1.398-3.398-3.199-7.801-5-12.398-5-1 0-1.801 0-2.801.199-2.801.402-5.199-1.398-5.801-4.199v-7c-20.602-1-32.801-8.602-39-14-20.398 23.801-49 22-60.398 20 0 2.801-2.203 5-5 5h-.801c-1-.199-1.801-.199-2.801-.199-4 0-8 1.398-11.199 4-2.199 1.801-5.402 1.398-7-.801-.801-.801-1-2-1-3.199v-25.199c0-34 27.598-61.602 61.598-61.602h16c11 0 21.602 5.199 28.402 13.801 4.598-2 9.398-3 14.398-3 20 0 36.199 16.199 36.199 36.199v41.398c0 2.801-2.199 5-5 5zm-14.398-16.398c3.199.199 6.398.801 9.398 2.199v-32c0-14.398-11.598-26.199-26.199-26.199-4.801 0-9.398 1.199-13.598 3.801-2.402 1.398-5.402.598-6.801-1.801-4.801-8-13.199-12.801-22.602-12.801h-16c-28.398 0-51.598 23-51.598 51.602v17c2.598-1 5.398-1.402 8.199-1.602 1.398-3.801 5.199-6 9.199-5 10.398 2.199 36.602 4.801 54.602-17.801 2.797-3.398 7.797-4 11.199-1.199l.598.602c3.801 3.598 14.602 12.199 36 12.801 4.203.199 7.602 3.598 7.602 7.797zm0 0M315.246 306.691c-.602 0-1.398-.199-2-.398l-.801-.402-.801-.598c-.199-.199-.398-.402-.598-.801-.402-.602-.602-1.199-.801-1.801v-1c0-1.398.602-2.598 1.398-3.598.203-.203.402-.402.801-.602.199-.199.602-.398.801-.398.398-.203.602-.203 1-.203.602-.199 1.398-.199 2 0l1 .203c.398.199.602.199.801.398l.801.602c2 2 2 5.199 0 7-1 1.199-2.203 1.598-3.602 1.598zm0 0M315.246 331.094c-1.398 0-2.602-.602-3.602-1.402-2-2-2-5.199 0-7 2-1.801 5-1.801 7 0 2 2 2 5 0 7-.199.199-.398.402-.797.602-.203.199-.602.398-.801.398-.402.199-.602.199-1 .199-.199.203-.402.203-.801.203zm0 0M315.246 355.492c-1.398 0-2.602-.602-3.602-1.398-.199-.203-.398-.402-.598-.801-.199-.199-.402-.602-.402-.801-.199-.398-.199-.602-.199-1l-.199-1c0-1.398.602-2.602 1.398-3.602.203-.199.402-.398.801-.598.199-.199.602-.402.801-.402.398-.199.602-.199 1-.199.602-.199 1.398-.199 2 0l1 .199c.398.203.602.203.801.402s.598.398.801.598c1 1 1.398 2.203 1.398 3.602 0 .398 0 .602-.199 1l-.199 1-.402.801-.598.801c-.203.199-.402.398-.801.598-.199.199-.602.402-.801.402-.199.199-.602.199-1 .199-.398.199-.602.199-1 .199zm0 0M315.246 379.891c-.398 0-.602 0-1-.199l-1-.199c-.398-.199-.602-.199-.801-.398l-.801-.602c-.199-.199-.398-.398-.598-.801-.199-.199-.402-.598-.402-.801-.199-.398-.199-.598-.199-1-.199-.598-.199-1.398 0-2l.199-1c.203-.398.203-.598.402-.797l.598-.801c.203-.199.402-.402.801-.602.199-.199.602-.398.801-.398.398-.199.602-.199 1-.199.602-.203 1.398-.203 2 0l1 .199c.398.199.602.199.801.398l.801.602c.199.199.398.398.598.801.199.199.402.598.402.797.199.203.199.602.199 1 .199.602.199 1.402 0 2l-.199 1c-.203.402-.203.602-.402.801l-.598.801c-.203.199-.402.398-.801.602-.199.199-.602.398-.801.398-.398.199-.602.199-1 .199-.398.199-.602.199-1 .199zm0 0M315.246 404.293c-.398 0-.602 0-1-.199l-1-.203c-.398-.199-.602-.199-.801-.398l-.801-.602c-1-1-1.398-2.199-1.398-3.598 0-.402 0-.602.199-1l.199-1c.203-.402.203-.602.402-.801l.598-.801c.203-.199.402-.398.801-.598.199-.203.602-.402.801-.402.398-.199.602-.199 1-.199.602-.199 1.199-.199 2 0l1 .199.801.402.801.598c2 2 2 5.199 0 7-1 1.199-2.203 1.602-3.602 1.602zm0 0M385.645 433.691c-2.797 0-5-2.199-5-5v-91.598c0-2.801 2.203-5 5-5 2.801 0 5 2.199 5 5v91.598c0 2.801-2.398 5-5 5zm0 0M249.047 433.691c-2.801 0-5-2.199-5-5v-58.801c0-2.797 2.199-5 5-5s5 2.203 5 5v58.801c0 2.801-2.402 5-5 5zm0 0M324.047 282.691h-18.402c-3 0-5.797-1.199-7.598-3.398-.801-1-1.199-2-1.199-3.199v-41.402c0-2.801 2.199-5 5-5 .398 0 .797 0 1.199.199 12 2.801 24.398 1.203 35.199-4.598 2.398-1.402 5.398-.402 6.801 2 .398.801.598 1.598.598 2.398v21c0 .801-.199 1.602-.398 2.199l-11.801 24.203c-2 3.398-5.598 5.598-9.398 5.598zm-17.402-10.199h17.203s.199 0 .199-.199l11.199-23.199v-12.203c-9.199 3.402-19 4.602-28.801 3.402zm0 0M432.445 433.691h-207.598c-2.801 0-5-2.199-5-5s2.199-5 5-5c2.797 0 5-2.199 5-5s-2.203-5-5-5h-24.801c-2.801 0-5-2.199-5-5v-15.597l1.199-23.402c.199-2.598 2.398-4.801 5-4.801h82.199c7.402 0 13.199-6 13.199-13.199v-75.801c0-2.797 2.203-5 5-5 1.402 0 2.801.602 3.801 1.602h18.602s.199 0 .199-.199l11.801-24.199c1.199-2.402 4.199-3.602 6.598-2.402l25.203 12.402 42 10.598c11.398 2.801 19.398 12.602 20 24.402l7.598 135.199c.199 2.801-2 5.199-4.801 5.199 0 .199 0 .199-.199.199zm-193.398-10h188.199l-7.199-129.801c-.402-7.199-5.402-13.398-12.602-15.199l-42.598-10.801c-.402 0-.602-.199-1-.398l-21-10.398-9.602 19.797c-1.801 3.602-5.199 5.801-9.199 5.801h-17.199v69c0 12.801-10.402 23.199-23.203 23.199h-77.398l-1 18.402v10.199h19.801c8.199 0 15 6.801 15 15-.199 1.801-.402 3.602-1 5.199zm0 0M349.047 302.094c-3 0-5.801-1.402-7.602-3.602l-16.598-20.801c-1.203-1.598-1.402-3.598-.602-5.398l11.801-24.199c1.199-2.402 4.199-3.602 6.598-2.402l25.602 12.602c2.398 1.199 3.398 4 2.398 6.398l-12.598 31.199c-1.199 3.203-4.199 5.402-7.602 6-.398.203-1 .203-1.398.203zm-14.402-28l14.402 17.797 10.801-26.398-17-8.398zm0 0M360.246 355.492h-23c-2.801 0-5-2.199-5-5s2.199-5 5-5h23c2.801 0 5 2.199 5 5s-2.199 5-5 5zm0 0M283.445 374.891h-83.398c-2.801 0-5-2.199-5-5v-77.797c0-4.602-3.801-8.402-8.402-8.402-4.598 0-8.398 3.801-8.398 8.402v77.797c0 2.801-2.199 5-5 5h-83.199c-12.801 0-23.199-10.398-23.199-23.199v-141.398c0-12.801 10.398-23.199 23.199-23.199h193.398c12.801 0 23.199 10.398 23.199 23.199v141.398c0 12.801-10.398 23.199-23.199 23.199zm-78.398-10h78.398c7.402 0 13.199-6 13.199-13.199v-141.398c0-7.402-6-13.199-13.199-13.199h-193.398c-7.402 0-13.199 6-13.199 13.199v141.398c0 7.402 6 13.199 13.199 13.199h78.398v-72.797c0-10.203 8.199-18.402 18.402-18.402 10.199 0 18.398 8.199 18.398 18.402v72.797zm0 0M200.047 433.691h-26.602c-2.801 0-5-2.199-5-5v-136.398c0-10.199 8.199-18.402 18.402-18.402 10.199 0 18.398 8.203 18.398 18.402v136.398c-.199 2.801-2.398 5-5.199 5zm-21.602-10h16.602v-131.398c0-4.602-3.801-8.402-8.402-8.402-4.598 0-8.398 3.801-8.398 8.402v131.398zm0 0M173.445 433.691h-22.398c-8.199 0-15-6.801-15-15s6.801-15 15-15h22.398c2.801 0 5 2.199 5 5v20c0 2.801-2.199 5-5 5zm-22.398-20c-2.801 0-5 2.199-5 5s2.199 5 5 5h17.398v-10zm0 0M224.848 433.691h-24.801c-2.801 0-5-2.199-5-5v-20c0-2.801 2.199-5 5-5h24.801c8.199 0 15 6.801 15 15s-6.801 15-15 15zm-19.801-10h19.801c2.797 0 5-2.199 5-5s-2.203-5-5-5h-19.801zm0 0M241.645 358.691c-2.797 0-5-2.199-5-5v-7c0-2.801 2.203-5 5-5 2.801 0 5 2.199 5 5v7c0 2.801-2.398 5-5 5zm0 0M221.047 358.691c-2.801 0-5-2.199-5-5v-7c0-2.801 2.199-5 5-5s5 2.199 5 5v7c0 2.801-2.402 5-5 5zm0 0M262.246 358.691c-2.801 0-5-2.199-5-5v-7c0-2.801 2.199-5 5-5s5 2.199 5 5v7c0 2.801-2.398 5-5 5zm0 0M301.645 220.492h-230c-2.797 0-5-2.199-5-5v-5.398c0-12.801 10.402-23.203 23.203-23.203h193.398c12.801 0 23.199 10.402 23.199 23.203v5.398c.199 2.801-2 5-4.801 5zm-225-10h220v-.398c0-7.402-6-13.203-13.199-13.203h-193.398c-7.402 0-13.199 6-13.199 13.203v.398zm0 0M314.445 240.891c-4.598 0-9.398-.598-13.801-1.598-2.199-.602-3.797-2.602-3.797-4.801v-24.199c0-7.402-6-13.199-13.203-13.199h-22.797c-2.402 0-4.402-1.602-5-4-.801-3.801-1.203-7.801-1.203-11.602v-44c0-4.398 3.602-8 8-8 .602 0 1.203 0 1.602.199 10.398 2.199 36.602 4.801 54.602-17.801 2.797-3.398 7.797-4 11.199-1.199l.598.602c3.801 3.598 14.602 12.199 36 12.801 4.203.199 7.602 3.598 7.602 7.797v49.801c0 32.402-26.801 59.199-59.801 59.199zm-7.801-10.598c2.602.398 5.203.598 7.801.598 27.402 0 49.801-22.199 49.801-49.797v-47.602c-20.602-1-33-8.602-39-14-20.398 23.801-49 22-60.398 20v41.602c0 2 .199 3.797.398 5.797h18.398c12.801 0 23.203 10.402 23.203 23.203zm0 0M118.848 132.691h-2.402c-36.801-1.398-65.801-32.199-64.398-69.199 1-31.602 24-58 54.801-63.398 3.598-.602 7.199 1.797 7.797 5.398.203 1.602 0 3.398-1 4.801-17 26.398-9.598 61.598 16.801 78.801 9.199 6 20 9.199 31 9.199h2.602c3.801-.199 6.801 2.801 7 6.398 0 1.801-.602 3.402-1.602 4.801-12.598 14.602-31.199 23.199-50.598 23.199zm-17.402-121c-30 9.602-46.398 41.402-37 71.402 9.402 30 41.602 46.398 71.602 36.797 7.598-2.398 14.801-6.398 20.801-11.797-36.801-2.602-64.602-34.602-62-71.402.398-8.801 2.797-17.199 6.598-25zm62.801 91.402M108.246 433.691h-41.602c-2.797 0-5-2.199-5-5v-.199c.602-14.199 12.801-25.199 27-24.602 13.203.602 24 11.203 24.602 24.602 0 2.801-2 5-5 5.199zm-35.398-10h29.398c-3.199-8-12.398-12-20.398-9-4.203 1.602-7.402 4.801-9 9zm0 0M154.246 486.094c-39.602 0-71.801-24.203-71.801-54v-3.402c0-2.801 2.199-5 5-5s5 2.199 5 5v3.402c0 24.199 27.801 44 61.801 44s61.801-19.801 61.801-44v-62.203c0-2.797 2.199-5 5-5s5 2.203 5 5v62.203c0 29.797-32.199 54-71.801 54zm0 0"/></g></svg>