<svg xmlns="http://www.w3.org/2000/svg" viewBox="0 0 512 512" enable-background="new 0 0 512 512"><path d="M452 380h-407c-24.813 0-45-20.187-45-45v-270c0-24.813 20.187-45 45-45h178.071l33 40h150.929c24.813 0 45 20.187 45 45v275z" fill="#FFE470"/><path d="M452 105c0-24.813-20.187-45-45-45h-150.929l-30.071-36.45v356.45h226v-275z" fill="#FFB64C"/><path d="M512 512h-420v-361h420v361z" fill="#FFF5CC"/><path fill="#FFDAAA" d="M302 151h210v361h-210z"/><path d="M326 241c-30.879 0-56-25.121-56-56v-64h30v64c0 14.337 11.663 26 26 26s26-11.663 26-26v-140c0-8.271-6.729-15-15-15s-15 6.729-15 15v15h-30v-15c0-24.813 20.187-45 45-45s45 20.187 45 45v140c0 30.879-25.121 56-56 56z" fill="#3A3A41"/><path d="M452 452h-300v-72.978l105.201-70.922 55.481 48.672 13.443-8.031c29.095-17.38 65.312-15.334 92.264 5.212l33.611 25.62v72.427z" fill="#00DD7B"/><path d="M326.126 348.74l-13.443 8.031-10.683-9.371v104.6h150v-72.427l-33.61-25.621c-26.952-20.546-63.169-22.592-92.264-5.212z" fill="#00AB5E"/><path d="M197 301c-24.813 0-45-20.187-45-45s20.187-45 45-45 45 20.187 45 45-20.187 45-45 45zm0-60c-8.271 0-15 6.729-15 15s6.729 15 15 15 15-6.729 15-15-6.729-15-15-15z" fill="#FFA721"/></svg>