<svg height="512pt" viewBox="0 0 512 512" width="512pt" xmlns="http://www.w3.org/2000/svg"><path d="M512 256c0 141.387-114.613 256-256 256s-256-114.613-256-256 114.613-256 256-256 256 114.613 256 256zm0 0" fill="#f2f2f2"/><path d="M338.969 133.484h-32.168v-49.547c0-2.656-2.152-4.813-4.813-4.813h-91.973c-2.66 0-4.816 2.156-4.816 4.813v49.551h-32.164v-53.027c0-18.504 15-33.504 33.504-33.504h98.926c18.504 0 33.504 15.004 33.504 33.508zm0 0" fill="#3e4959"/><path d="M212.934 113.223h-47.637c-1.758 0-3.18 1.422-3.18 3.18v29.023c0 1.754 1.422 3.18 3.18 3.18h47.637c1.758 0 3.18-1.426 3.18-3.18v-29.023c0-1.758-1.422-3.18-3.18-3.18zm0 0" fill="#ffd55c"/><path d="M192.117 145.426v-29.023c0-1.758 1.422-3.18 3.18-3.18h-30c-1.758 0-3.18 1.422-3.18 3.18v29.023c0 1.754 1.422 3.18 3.18 3.18h30c-1.758 0-3.18-1.426-3.18-3.18zm0 0" fill="#ffc640"/><path d="M346.703 113.223h-47.637c-1.758 0-3.18 1.422-3.18 3.18v29.023c0 1.754 1.422 3.18 3.18 3.18h47.637c1.758 0 3.18-1.426 3.18-3.18v-29.023c0-1.758-1.422-3.18-3.18-3.18zm0 0" fill="#ffd55c"/><path d="M325.887 145.426v-29.023c0-1.758 1.422-3.18 3.18-3.18h-30c-1.758 0-3.18 1.422-3.18 3.18v29.023c0 1.754 1.422 3.18 3.18 3.18h30c-1.758 0-3.18-1.426-3.18-3.18zm0 0" fill="#ffc640"/><path d="M512 147.75v108.25c0 141.379-114.621 256-256 256s-256-114.621-256-256v-108.25c0-7.871 6.379-14.25 14.25-14.25h483.5c7.871 0 14.25 6.379 14.25 14.25zm0 0" fill="#465365"/><path d="M50 147.75c0-7.871 6.379-14.25 14.25-14.25h-50c-7.871 0-14.25 6.379-14.25 14.25v108.25c0 56.914 18.582 109.484 50 151.992zm0 0" fill="#3e4959"/><path d="M234.055 221.621h-120.461c-4.426 0-8.016 3.59-8.016 8.016v233.508c38.723 28.164 85.629 45.746 136.492 48.473v-281.981c0-4.426-3.59-8.016-8.016-8.016zm0 0" fill="#13adb2"/><path d="M105.578 229.637v233.508c14.793 10.762 30.777 19.973 47.723 27.402v-268.926h-39.707c-4.426 0-8.016 3.59-8.016 8.016zm0 0" fill="#16c6cc"/><g fill="#21d8de"><path d="M160.398 415.703c0 3.918-3.176 7.098-7.094 7.098h-47.727v-14.195h47.727c3.918 0 7.094 3.18 7.094 7.098zm0 0M180.234 375.469c0 3.918-3.176 7.094-7.094 7.094h-67.563v-14.191h67.563c3.918 0 7.094 3.176 7.094 7.098zm0 0M160.398 335.23c0 3.918-3.176 7.098-7.094 7.098h-47.727v-14.195h47.727c3.918 0 7.094 3.18 7.094 7.098zm0 0M180.234 294.992c0 3.922-3.176 7.098-7.094 7.098h-67.563v-14.191h67.563c3.918 0 7.094 3.176 7.094 7.094zm0 0M160.398 254.758c0 3.918-3.176 7.098-7.094 7.098h-47.727v-14.195h47.727c3.918 0 7.094 3.18 7.094 7.098zm0 0"/></g><path d="M372.699 270.293l-2.73-7.352c-6.543-1.324-13.188-1.984-19.84-1.996-6.027-.008-12.066.516-18.023 1.566-.836.148-1.684.316-2.523.484l-2.77 7.297-5.664 14.922-22.523 59.32-6.254 16.484v148.398c42.211-6.008 81.098-22.301 114.051-46.273v-102.125l-2.945-7.93zm0 0" fill="#ffd55c"/><path d="M376.863 376.387l-19.625-18.805c-2.125-2.031-4.902-3.152-7.836-3.152-2.945 0-5.723 1.121-7.848 3.152l-19.625 18.805-6.148-5.387-.449-.41c-2.039-1.992-3.195-4.742-3.195-7.613 0-1.293.234-2.582.699-3.793l8.031-21.164 7.988-21.031 17.723-46.695 3.551-9.348v-.008c-6.027-.008-12.059.523-18.02 1.574-.84.148-1.688.316-2.527.484l-2.766 7.297-5.668 14.922-22.523 59.32-6.254 16.484v148.398c42.211-6.008 81.098-22.301 114.055-46.273v-102.125l-2.945-7.93zm0 0" fill="#ffc640"/><path d="M372.703 270.289l-16.32-43.902c-2.215-5.957-10.629-5.988-12.887-.047l-16.684 43.949zm0 0" fill="#3e4959"/><path d="M376.473 385.871c-.289-.008-.578-.074-.848-.168l-.262-.102c-.363-.16-.707-.375-1.008-.664l-22.586-21.656c-1.324-1.266-3.422-1.266-4.742 0l-22.59 21.656c-.316.309-.68.531-1.063.691l-.289.102-.27.074-.035.012-.254.035-.352.027c-.84.027-1.688-.25-2.359-.84l-8.219-7.191-19.223-16.832v148.398c42.207-6.004 81.098-22.301 114.051-46.27v-102.125l-27.434 24.023c-.723.625-1.633.902-2.52.828zm0 0" fill="#f15424"/><path d="M375.363 385.602c-.363-.156-.707-.371-1.004-.66l-22.59-21.656c-1.324-1.27-3.418-1.27-4.742 0l-22.59 21.656c-.316.305-.68.531-1.059.688l-.289.105-.273.074-.035.008-.25.035-.355.031v117.465c19.066-5.09 37.258-12.32 54.301-21.426v-96.051c-.289-.02-.57-.074-.848-.168l-.266-.102zm0 0" fill="#ff6d3b"/><path d="M359.777 235.523l-3.395-9.137c-2.215-5.957-10.629-5.988-12.887-.047l-16.684 43.949h19.766zm0 0" fill="#242d3c"/><path d="M323.152 315.043c-2.109-35.027-49.43-114.477-63.34-137.145-1.746-2.844-5.879-2.844-7.625 0-13.91 22.668-61.23 102.117-63.34 137.145-2.477 41.086 30.461 83.824 30.461 83.824h73.383s32.938-42.738 30.461-83.824zm0 0" fill="#fff"/><path d="M212.418 315.043c1.805-29.922 36.594-92.25 55.367-123.918-3.203-5.402-5.945-9.922-7.973-13.227-1.746-2.844-5.879-2.844-7.625 0-13.91 22.668-61.23 102.117-63.34 137.145-2.477 41.086 30.461 83.824 30.461 83.824h23.574s-32.941-42.738-30.465-83.824zm0 0" fill="#f2f2f2"/><path d="M297.918 408.023h-83.832v100.543c13.641 2.246 27.637 3.434 41.914 3.434s28.277-1.188 41.918-3.434zm0 0" fill="#465365"/><path d="M214.086 508.566c7.746 1.273 15.605 2.207 23.566 2.773v-103.316h-23.566zm0 0" fill="#3e4959"/><path d="M302.328 427.695h-92.656c-2.762 0-5-2.242-5-5.004v-29.348c0-2.762 2.238-5 5-5h92.656c2.762 0 5 2.238 5 5v29.348c0 2.762-2.238 5.004-5 5.004zm0 0" fill="#21d8de"/><path d="M228.242 422.691v-29.348c0-2.762 2.242-5 5.004-5h-23.574c-2.762 0-5 2.238-5 5v29.348c0 2.762 2.238 5.004 5 5.004h23.574c-2.762 0-5.004-2.242-5.004-5.004zm0 0" fill="#16c6cc"/><path d="M323.152 315.043c-2.109-35.027-49.43-114.477-63.34-137.145-1.746-2.844-5.879-2.844-7.625 0-9.25 15.074-33.273 55.258-48.953 90.789 12.848-26.832 45.414-4.879 46.828 34.012s32.07 51.621 47.855 38.891c14.879-11.996 23.074-2.074 19.781 9.57 3.766-11.395 6.195-23.828 5.453-36.117zm0 0" fill="#ff6d3b"/><path d="M230.43 260.703c11.863-25.473 27.031-52.16 37.355-69.578-3.203-5.402-5.945-9.922-7.973-13.227-1.746-2.844-5.879-2.844-7.625 0-9.25 15.074-33.273 55.258-48.953 90.789 6.316-13.188 17.395-14.586 27.195-7.984zm0 0" fill="#f15424"/></svg>