<svg height="511pt" viewBox="-4 0 511 511.99964" width="511pt" xmlns="http://www.w3.org/2000/svg"><path d="M498.43 219.34c-5.309-8.016-13.355-13.539-22.711-15.633 6.035-11.543 5.789-25.945-1.898-37.551-5.469-8.262-13.719-13.598-22.699-15.617 1.602-3.055 2.785-6.352 3.492-9.828 1.961-9.668.047-19.52-5.402-27.742-5.309-8.02-13.355-13.543-22.711-15.633 6.035-11.543 5.789-25.945-1.898-37.555-11.238-16.973-34.199-21.641-51.176-10.398l-36.758 24.344c-19.594-9.938-40.434-16.988-62.063-21.004-6.836-10.379-14.785-20.027-23.684-28.652l-15.207-14.738c-11.137-10.797-28.602-12.418-41.531-3.852-15.297 10.129-19.5 30.816-9.371 46.113.398.605.789 1.215 1.176 1.824-49.848 10.086-95.277 36.539-128.902 75.301-36.488 42.066-56.586 95.941-56.586 151.699 0 10.688.73 21.395 2.176 31.816 11.137 81.02 65.105 150.84 140.84 182.219 28.086 11.641 57.887 17.547 88.563 17.547 48.582 0 95.086-14.879 134.488-43.023 38.547-27.539 67.387-65.543 83.406-109.902 1.496-4.133-.648-8.699-4.781-10.191-4.137-1.492-8.699.648-10.191 4.785-14.918 41.309-41.781 76.699-77.691 102.352-36.684 26.207-79.988 40.059-125.23 40.059-23.391 0-46.23-3.691-68.09-10.973l64.773-42.895.012-.008.008-.008 53.832-35.648h.004c4.832-3.203 8.133-8.094 9.289-13.777 1.156-5.684.031-11.48-3.172-16.313l-.711-1.078 10.457-6.926c7.461-4.941 16.434-6.879 25.27-5.461 12.793 2.055 25.785-.758 36.582-7.91l86.734-57.438c-.594 7.523-1.57 15.004-2.934 22.359-.805 4.324 2.051 8.48 6.375 9.281.488.094.98.137 1.461.137 3.762 0 7.105-2.68 7.816-6.512 2.207-11.871 3.477-24.031 3.805-36.207l24.441-16.188c8.223-5.445 13.836-13.77 15.797-23.434 1.965-9.668.047-19.52-5.398-27.742zm-177.219-135.379l-24.324 16.109-4.789-12.902c-2-5.383-4.293-10.66-6.832-15.824 12.34 3.129 24.355 7.348 35.945 12.617zm-252.098 55.191c32.316-37.254 76.336-62.297 124.492-70.98 7.727 18.719 9.578 39.633 4.961 59.566l-19.41 83.855c-3.051-3.258-7.012-5.504-11.473-6.41-5.688-1.16-11.48-.031-16.313 3.172l-54.98 36.406-.008.004-.004.004-79.297 52.512c-.434-5.594-.66-11.23-.66-16.863 0-51.922 18.715-102.094 52.691-141.266zm207.191 250.441c-.309 1.516-1.191 2.824-2.484 3.68h.004l-47.281 31.309-87.754-130.871c-2.449-3.652-7.395-4.625-11.047-2.176-3.648 2.449-4.625 7.391-2.176 11.043l87.699 130.797-67.496 44.699c-67.07-29.336-115.066-91.289-126.605-163.379l79.391-52.402 9.137 13.633c1.539 2.289 4.055 3.527 6.621 3.527 1.523 0 3.066-.434 4.426-1.348 3.652-2.449 4.629-7.395 2.18-11.047l-9.074-13.535 48.32-31.895c1.285-.855 2.828-1.152 4.344-.844 1.516.309 2.824 1.191 3.68 2.48l107.273 161.984c.852 1.285 1.152 2.828.844 4.344zm211.922-145.684c-1.117 5.5-4.309 10.234-8.988 13.332l-27.941 18.504-.027.016-99.73 66.047c-7.461 4.941-16.434 6.883-25.27 5.461-12.789-2.051-25.781.758-36.582 7.91l-10.457 6.926-87.859-132.668 22.711-98.105c5.848-25.273 2.766-51.895-8.375-75.086-.102-.242-.211-.477-.336-.707-2.141-4.383-4.57-8.637-7.285-12.738-5.281-7.977-3.09-18.762 4.891-24.047 6.742-4.465 15.852-3.621 21.656 2.008l15.207 14.742c16.449 15.949 29.359 35.73 37.328 57.207l8.281 22.309.047.117.063.156.172.367c.16.336.336.668.547.984 2.43 3.668 7.367 4.672 11.031 2.242l84.91-56.227c9.656-6.395 22.715-3.742 29.109 5.914s3.742 22.715-5.914 29.109l-7.371 4.883-.008.004-16.441 10.891-.063.043-.258.191c-3.398 2.496-4.277 7.242-1.922 10.797 2.426 3.668 7.367 4.672 11.035 2.242l16.453-10.898c4.676-3.09 10.273-4.18 15.77-3.063 5.496 1.117 10.234 4.309 13.328 8.988 3.098 4.676 4.191 10.281 3.074 15.777-1.117 5.5-4.309 10.234-8.988 13.332l-23.82 15.777c-3.668 2.426-4.672 7.363-2.242 11.031 1.531 2.313 4.063 3.566 6.645 3.566 1.508 0 3.035-.43 4.387-1.324l3.688-2.441 12.758-8.449c9.66-6.395 22.715-3.742 29.109 5.914 6.395 9.66 3.742 22.715-5.914 29.113l-11.898 7.879-.188.125-11.734 7.77c-3.668 2.426-4.672 7.367-2.242 11.035 1.531 2.313 4.063 3.566 6.645 3.566 1.508 0 3.035-.43 4.387-1.324l3.688-2.441.004-.004 12.758-8.445c4.676-3.098 10.277-4.191 15.777-3.07 5.5 1.113 10.234 4.309 13.332 8.984 3.094 4.676 4.184 10.281 3.066 15.777zm0 0"/></svg>