<svg height="480pt" viewBox="0 0 480 480" width="480pt" xmlns="http://www.w3.org/2000/svg"><path d="M240 8c-128.129 0-232 103.871-232 232s103.871 232 232 232 232-103.871 232-232-103.871-232-232-232zm-16 56c0-8.836 7.164-16 16-16s16 7.164 16 16v144c0 8.836-7.164 16-16 16s-16-7.164-16-16zm-1.406 327.031c-66.18-7.594-119.703-57.391-132.043-122.852-12.34-65.457 19.379-131.324 78.25-162.492 4.426-2.375 9.711-2.543 14.281-.453 4.57 2.086 7.902 6.191 9.008 11.094v.098c1.543 7.043-1.813 14.25-8.203 17.598-48.75 25.773-73.66 81.457-60.383 134.98 13.273 53.523 61.324 91.109 116.469 91.109 55.145 0 103.191-37.586 116.469-91.109 13.277-53.523-11.633-109.207-60.387-134.98-6.383-3.352-9.738-10.559-8.191-17.598v-.105c1.117-4.91 4.465-9.016 9.051-11.098 4.586-2.078 9.883-1.891 14.309.504 64.598 34.23 95.68 109.594 73.992 179.406s-90.004 114.301-162.621 105.898zm0 0" fill="#ff3051"/><path d="M240 224c8.836 0 16-7.164 16-16v-144c0-8.836-7.164-16-16-16s-16 7.164-16 16v144c0 8.836 7.164 16 16 16zm0 0M311.273 105.727c-4.43-2.395-9.727-2.582-14.313-.504-4.586 2.082-7.934 6.188-9.051 11.098v.105c-1.547 7.039 1.809 14.246 8.195 17.598 48.75 25.773 73.66 81.457 60.383 134.98-13.277 53.523-61.324 91.109-116.469 91.109s-103.191-37.586-116.469-91.109c-13.277-53.523 11.633-109.207 60.387-134.98 6.387-3.348 9.742-10.555 8.199-17.598v-.098c-1.105-4.902-4.434-9.008-9.008-11.094-4.57-2.09-9.852-1.922-14.281.453-61.668 32.719-93.121 103.234-76.266 170.977 16.855 67.746 77.691 115.297 147.504 115.297 69.809 0 130.645-47.551 147.5-115.297 16.855-67.742-14.598-138.258-76.266-170.977zm0 0" fill="#a7a9ac"/><path d="M240 0c-132.547 0-240 107.453-240 240s107.453 240 240 240 240-107.453 240-240c-.148-132.484-107.516-239.852-240-240zm0 464c-123.711 0-224-100.289-224-224s100.289-224 224-224 224 100.289 224 224c-.141 123.652-100.348 223.859-224 224zm0 0M240 232c13.254 0 24-10.746 24-24v-144c0-13.254-10.746-24-24-24s-24 10.746-24 24v144c0 13.254 10.746 24 24 24zm-8-168c0-4.418 3.582-8 8-8s8 3.582 8 8v144c0 4.418-3.582 8-8 8s-8-3.582-8-8zm0 0M315.023 98.664c-6.684-3.598-14.676-3.832-21.559-.633-6.844 3.125-11.809 9.301-13.387 16.656-2.301 10.555 2.711 21.348 12.258 26.402 45.508 24.051 68.762 76.02 56.371 125.98-12.391 49.957-57.234 85.039-108.707 85.039s-96.316-35.082-108.707-85.039c-12.391-49.961 10.863-101.93 56.371-125.98 9.563-5.078 14.563-15.91 12.23-26.48-1.637-7.348-6.613-13.504-13.453-16.645s-14.754-2.902-21.395.645c-61.969 32.813-95.352 102.152-82.355 171.055 13 68.906 69.348 121.32 139.012 129.305 6.164.684 12.359 1.027 18.563 1.031 39.305.098 77.234-14.449 106.398-40.801 39-34.871 58.488-86.609 52.184-138.547-6.301-51.938-37.598-97.512-83.809-122.043zm20.977 248.672c-41.469 37.051-100.563 46.91-151.813 25.336s-85.5-70.73-87.984-126.285c-2.484-55.551 27.238-107.57 76.355-133.633 1.188-.633 2.508-.965 3.848-.969 1.18 0 2.344.254 3.41.75 2.297 1.055 3.961 3.129 4.488 5.602.797 3.535-.906 7.156-4.137 8.801-52 27.492-78.566 86.887-64.402 143.977 14.164 57.09 65.414 97.176 124.234 97.176s110.07-40.086 124.234-97.176c14.164-57.09-12.402-116.484-64.402-143.977-3.238-1.664-4.934-5.32-4.105-8.867.523-2.434 2.172-4.473 4.441-5.496 2.352-1.082 5.074-.996 7.352.234 41.59 22.074 69.758 63.09 75.438 109.832 5.676 46.742-11.859 93.309-46.957 124.695zm0 0"/></svg>