<svg xmlns="http://www.w3.org/2000/svg" viewBox="0 0 512.002 512.002" enable-background="new 0 0 512.002 512.002"><path fill="#8FDBFD" d="M251.099 172.5l20 322h30l20-322z"/><path d="M231.099 172.5c-10.295 0-18.766 7.781-19.87 17.782l-33.728 304.218h93.598v-322h-40z" fill="#186DD7"/><path d="M360.97 190.282c-1.105-10.001-9.575-17.782-19.87-17.782h-30l53.402 322h30l-33.532-304.218z" fill="#1653CA"/><path d="M311.099 172.5h-10v322h63.402l-33.531-304.218c-1.105-10.001-9.576-17.782-19.871-17.782z" fill="#186DD7"/><path d="M300.871 97.5l-15 135c24.853 0 45-20.147 45-45v-90h-30z" fill="#C8C8C8"/><path d="M240.871 97.5v90c0 24.853 20.147 45 45 45 8.284 0 15-20.147 15-45v-90h-60z" fill="#fff"/><path d="M286.129 52.5v90c24.853 0 45-20.147 45-45l-.258-15-44.742-30z" fill="#FDA181"/><path d="M286.129 52.5l-45.258 30 .258 15c0 24.853 20.147 45 45 45 8.284 0 15-20.147 15-45s-6.716-45-15-45z" fill="#FDC0AB"/><path fill="#186DD7" d="M285.871 7.5v51.898l15.228 23.102h30z"/><path fill="#1A93EA" d="M241.099 82.5h60l-15.228-75z"/><path d="M162.501 27.5l-15-20-15 20-7.5 38.565c0 12.427 10.074 22.5 22.5 22.5s22.5-10.073 22.5-22.5l-7.5-38.565z" fill="#8FDBFD"/><path d="M401.956 493.679l-33.532-304.22c-1.54-13.944-13.287-24.459-27.325-24.459h-2.728v-62.32c.168-1.705.258-3.432.258-5.18 0-.666-.095-1.307-.258-1.922v-5.578h22.728c4.142 0 7.5-3.357 7.5-7.5s-3.358-7.5-7.5-7.5h-25.765l-43.04-71.373c-1.358-2.251-3.795-3.627-6.423-3.627-2.651.006-5.089 1.394-6.44 3.655l-42.59 71.345h-25.742c-4.142 0-7.5 3.357-7.5 7.5s3.358 7.5 7.5 7.5h22.272v75h-2.272c-12.496 0-23.17 8.335-26.452 20h-49.646v-89.885c12.925-3.339 22.5-15.098 22.5-29.051 0-.48-.046-.96-.138-1.432l-7.5-38.564c-.216-1.112-.682-2.162-1.362-3.068l-15-20c-1.417-1.889-3.639-3-6-3s-4.583 1.111-6 3l-15 20c-.68.906-1.146 1.956-1.362 3.068l-7.5 38.564c-.092.472-.138.951-.138 1.432 0 13.953 9.575 25.712 22.5 29.051v89.885h-7.5c-12.407 0-22.5 10.094-22.5 22.5s10.093 22.5 22.5 22.5h7.5v274.5c0 4.143 3.358 7.5 7.5 7.5s7.5-3.357 7.5-7.5v-304.5h47.604l-32.559 293.674c-.235 2.12.444 4.239 1.867 5.829 1.423 1.589 3.455 2.497 5.588 2.497h41.534c-.539 1.521-.601 3.223-.051 4.872 1.048 3.143 3.974 5.13 7.114 5.13.786 0 1.586-.125 2.373-.387l28.845-9.615h57.565l28.846 9.615c.787.262 1.586.387 2.373.387 3.14 0 6.066-1.987 7.114-5.13.549-1.649.488-3.352-.051-4.872h41.338c2.132 0 4.164-.907 5.586-2.496 1.423-1.588 2.103-3.706 1.869-5.825zm-269.441-426.964l7.019-36.093 7.967-10.622 7.967 10.622 7.019 36.093c-.342 7.971-6.933 14.35-14.986 14.35s-14.644-6.379-14.986-14.35zm7.486 148.285h-7.5c-4.136 0-7.5-3.364-7.5-7.5s3.364-7.5 7.5-7.5h7.5v15zm183.37-27.5c0 20.678-16.822 37.5-37.5 37.5s-37.5-16.822-37.5-37.5v-53.578c9.554 9.901 22.944 16.078 37.758 16.078 14.545 0 27.725-5.949 37.242-15.538v53.038zm0-85.67c-2.154 18.645-18.029 33.17-37.242 33.17-20.678 0-37.5-16.822-37.5-37.5 0-.666-.095-1.307-.258-1.922v-5.578h75v11.83zm-37.467-79.753l31.914 52.923h-63.507l31.593-52.923zm-67.464 171.219l.005-.05.237-2.141c.7-6.331 6.037-11.105 12.416-11.105h2.272v7.5c0 28.948 23.551 52.5 52.5 52.5 2.625 0 5.205-.199 7.728-.573v247.573h-15v-226.994c0-4.143-3.358-7.5-7.5-7.5s-7.5 3.357-7.5 7.5v226.994h-77.72l32.562-293.704zm90.159 293.704v-252.179c17.599-8.487 29.772-26.509 29.772-47.321v-7.5h2.728c6.379 0 11.716 4.774 12.415 11.104l32.615 295.896h-77.53z"/></svg>