<svg xmlns="http://www.w3.org/2000/svg" viewBox="0 0 512 512" enable-background="new 0 0 512 512"><path fill="#E6BE94" d="M487.781 484h-464v-216h96.001l135.999-136 136.003 136h95.997z"/><path fill="#996459" d="M207.781 388h96v96h-96z"/><path d="M301.781 356h-92c-1.105 0-2 .895-2 2v30h96v-30c0-1.105-.895-2-2-2z" fill="#4BB9EC"/><path d="M329.617 68l13.039-19.562c1.633-2.453 1.789-5.609.398-8.211s-4.101-4.227-7.054-4.227h-80c-4.422 0-8 3.578-8 8v48c0 4.422 3.578 8 8 8h80c2.953 0 5.664-1.625 7.055-4.227s1.234-5.758-.398-8.211l-13.04-19.562z" fill="#FF4F19"/><path d="M256 140c-4.422 0-8-3.578-8-8v-104c0-4.422 3.578-8 8-8s8 3.578 8 8v104c0 4.422-3.578 8-8 8z" fill="#5C546A"/><path d="M288.391 168.938c1.234-2.992 4.156-4.938 7.391-4.938h152c2.734 0 5.281 1.398 6.75 3.703l56 88c1.57 2.469 1.664 5.586.266 8.148-1.406 2.555-4.094 4.148-7.016 4.148h-120c-2.125 0-4.156-.844-5.656-2.344l-88-88c-2.29-2.288-2.978-5.725-1.735-8.717zM223.391 168.938c-1.235-2.993-4.157-4.938-7.391-4.938h-152c-2.734 0-5.281 1.398-6.75 3.703l-56 88c-1.57 2.469-1.664 5.586-.266 8.148 1.407 2.555 4.094 4.149 7.016 4.149h120c2.125 0 4.156-.844 5.656-2.344l88-88c2.289-2.289 2.977-5.726 1.735-8.718z" fill="#FF4F19"/><path d="M391.891 275.891c-2.047 0-4.094-.781-5.656-2.344l-130.235-130.234-130.234 130.234c-3.125 3.125-8.188 3.125-11.313 0s-3.125-8.188 0-11.313l135.891-135.891c3.125-3.125 8.188-3.125 11.313 0l135.891 135.891c3.125 3.125 3.125 8.188 0 11.313-1.564 1.562-3.61 2.344-5.657 2.344z" fill="#E3001E"/><circle cx="256.001" cy="268" r="48" fill="#FFEBB7"/><path d="M256 236c-4.422 0-8 3.578-8 8v16h-16c-4.422 0-8 3.578-8 8s3.578 8 8 8h24c4.422 0 8-3.578 8-8v-24c0-4.422-3.578-8-8-8z" fill="#5C546A"/><path d="M375.781 320c0-11.046-8.954-20-20-20s-20 8.954-20 20c0 1.37.141 2.707.403 4h-.403v32h40v-32h-.403c.263-1.293.403-2.63.403-4z" fill="#4BB9EC"/><path d="M356 292c-15.438 0-28 12.562-28 28v36c0 4.422 3.578 8 8 8h40c4.422 0 8-3.578 8-8v-36c0-15.438-12.562-28-28-28zm0 16c6.617 0 12 5.383 12 12v4h-24v-4c0-6.617 5.383-12 12-12zm-12 40v-8h24v8h-24z" fill="#7E5C62"/><path fill="#4BB9EC" d="M136.001 396h40v48h-40z"/><path d="M176 388h-40c-4.422 0-8 3.578-8 8v48c0 4.422 3.578 8 8 8h40c4.422 0 8-3.578 8-8v-48c0-4.422-3.578-8-8-8zm-8 16v8h-24v-8h24zm-24 32v-8h24v8h-24z" fill="#7E5C62"/><path fill="#4BB9EC" d="M63.782 396h40v48h-40z"/><path d="M103.781 388h-40c-4.422 0-8 3.578-8 8v48c0 4.422 3.578 8 8 8h40c4.422 0 8-3.578 8-8v-48c0-4.422-3.578-8-8-8zm-8 16v8h-24v-8h24zm-24 32v-8h24v8h-24z" fill="#7E5C62"/><path fill="#4BB9EC" d="M408 396h40v48h-40z"/><path d="M448 388h-40c-4.422 0-8 3.578-8 8v48c0 4.422 3.578 8 8 8h40c4.422 0 8-3.578 8-8v-48c0-4.422-3.578-8-8-8zm-8 16v8h-24v-8h24zm-24 32v-8h24v8h-24z" fill="#7E5C62"/><path fill="#4BB9EC" d="M335.782 396h40v48h-40z"/><path d="M375.781 388h-40c-4.422 0-8 3.578-8 8v48c0 4.422 3.578 8 8 8h40c4.422 0 8-3.578 8-8v-48c0-4.422-3.578-8-8-8zm-8 16v8h-24v-8h24zm-24 32v-8h24v8h-24z" fill="#7E5C62"/><path d="M447.563 320c0-11.046-8.954-20-20-20s-20 8.954-20 20c0 1.37.141 2.707.403 4h-.403v32h40v-32h-.403c.262-1.293.403-2.63.403-4z" fill="#4BB9EC"/><path d="M427.781 292c-15.438 0-28 12.562-28 28v36c0 4.422 3.578 8 8 8h40c4.422 0 8-3.578 8-8v-36c0-15.438-12.562-28-28-28zm0 16c6.617 0 12 5.383 12 12v4h-24v-4c0-6.617 5.383-12 12-12zm-12 40v-8h24v8h-24z" fill="#7E5C62"/><path d="M103.563 320c0-11.046-8.954-20-20-20s-20 8.954-20 20c0 1.37.141 2.707.403 4h-.403v32h40v-32h-.403c.262-1.293.403-2.63.403-4z" fill="#4BB9EC"/><path d="M83.781 292c-15.438 0-28 12.562-28 28v36c0 4.422 3.578 8 8 8h40c4.422 0 8-3.578 8-8v-36c0-15.438-12.562-28-28-28zm0 16c6.617 0 12 5.383 12 12v4h-24v-4c0-6.617 5.383-12 12-12zm-12 40v-8h24v8h-24z" fill="#7E5C62"/><path d="M175.344 320c0-11.046-8.954-20-20-20s-20 8.954-20 20c0 1.37.141 2.707.403 4h-.403v32h40v-32h-.403c.262-1.293.403-2.63.403-4z" fill="#4BB9EC"/><path d="M155.563 292c-15.438 0-28 12.562-28 28v36c0 4.422 3.578 8 8 8h40c4.422 0 8-3.578 8-8v-36c0-15.438-12.563-28-28-28zm0 16c6.617 0 12 5.383 12 12v4h-24v-4c0-6.617 5.382-12 12-12zm-12 40v-8h24v8h-24zM256 324c-30.879 0-56-25.121-56-56s25.121-56 56-56 56 25.121 56 56-25.121 56-56 56zm0-96c-22.055 0-40 17.943-40 40s17.945 40 40 40 40-17.943 40-40-17.945-40-40-40zM288 348h-64c-13.234 0-24 10.766-24 24v112c0 4.422 3.578 8 8 8s8-3.578 8-8v-88h31.781v88h16v-88h32.219v88c0 4.422 3.578 8 8 8s8-3.578 8-8v-112c0-13.234-10.766-24-24-24zm8 32h-80v-8c0-4.414 3.586-8 8-8h64c4.414 0 8 3.586 8 8v8z" fill="#7E5C62"/><path d="M504 492h-496c-4.422 0-8-3.578-8-8s3.578-8 8-8h496c4.422 0 8 3.578 8 8s-3.578 8-8 8z" fill="#5C546A"/></svg>