<svg xmlns="http://www.w3.org/2000/svg" viewBox="0 0 52.966 52.966" enable-background="new 0 0 52.966 52.966"><circle cx="21.983" cy="21" r="20" fill="#57ABC1"/><path stroke="#556080" stroke-width="2" stroke-linecap="round" stroke-miterlimit="10" fill="none" d="M35.437 35.798l15.546 16.168"/><path d="M3.002 27.253c.848 2.582 2.24 5.018 4.167 7.146l28.213-28.213c-2.129-1.928-4.564-3.319-7.146-4.167l-25.234 25.234z" fill="#7CCBD8"/><path d="M21.983 42c-11.58 0-21-9.42-21-21s9.42-21 21-21 21 9.42 21 21-9.421 21-21 21zm0-40c-10.477 0-19 8.523-19 19s8.523 19 19 19 19-8.523 19-19-8.524-19-19-19z" fill="#556080"/></svg>