<svg xmlns="http://www.w3.org/2000/svg" viewBox="0 0 57 57" enable-background="new 0 0 57 57"><g fill="#424A60"><path d="M42.111 8.847c-.473-.29-1.087-.143-1.376.327-.29.471-.143 1.086.327 1.376 7.162 4.41 11.438 12.054 11.438 20.45 0 2.067-.271 4.137-.805 6.152-.141.533.177 1.081.711 1.223l.256.033c.443 0 .848-.296.966-.744.579-2.182.872-4.424.872-6.664 0-9.095-4.631-17.377-12.389-22.153zM37.671 53.182c-2.915 1.206-6 1.818-9.171 1.818-6.728 0-13.189-2.854-17.728-7.832-.372-.408-1.003-.437-1.413-.065-.408.372-.437 1.005-.065 1.413 4.917 5.391 11.917 8.484 19.206 8.484 3.435 0 6.778-.663 9.936-1.971.51-.211.753-.796.542-1.307-.211-.509-.797-.751-1.307-.54zM22.784 7.687c.537-.132.865-.673.734-1.209-.13-.536-.674-.862-1.208-.734-11.008 2.69-18.939 12.094-19.737 23.402-.039.551.376 1.029.927 1.067l.071.003c.521 0 .959-.402.997-.93.737-10.436 8.057-19.117 18.216-21.599z"/></g><circle cx="28.5" cy="6" r="6" fill="#EBBA16"/><circle cx="6.5" cy="43" r="6" fill="#7383BF"/><circle cx="50.5" cy="43" r="6" fill="#43B05C"/></svg>