<svg height="480pt" viewBox="0 -2 480.20283 480" width="480pt" xmlns="http://www.w3.org/2000/svg"><path d="M245.352 60.191l-232.672 232.672c-6.246 6.25-6.246 16.375 0 22.625l147.07 147.078c6.25 6.254 16.383 6.254 22.633 0l121.801-121.797 110.871-110.875c3.133-3.137 4.824-7.43 4.672-11.863l-4.895-142.176c-.293-8.402-7.039-15.148-15.441-15.438l-53.734-1.852c-2.703 12.285-1.688 25.098 2.918 36.801 11.41-4.707 24.531.004 30.336 10.895 5.805 10.895 2.402 24.414-7.867 31.262-10.27 6.844-24.059 4.785-31.879-4.762-7.82-9.551-7.125-23.473 1.609-32.195 2.234-2.227 4.883-3.996 7.801-5.199-4.605-11.703-5.621-24.516-2.918-36.801l-88.441-3.055c-4.434-.152-8.73 1.543-11.863 4.68zm-130.848 198.73l101.824 101.82zm33.934-33.938l101.824 101.824zm0 0" fill="#0b7"/><path d="M255.918 321.152l-101.824-101.832c-3.137-3.031-8.129-2.988-11.215.098-3.086 3.086-3.129 8.074-.098 11.215l101.824 101.832c3.141 3.031 8.129 2.988 11.215-.098 3.086-3.086 3.129-8.074.098-11.215zm0 0M120.184 253.273c-2.012-2.082-4.984-2.914-7.781-2.184-2.797.734-4.98 2.918-5.715 5.715-.73 2.797.102 5.77 2.184 7.781l101.801 101.813c2.008 2.082 4.98 2.914 7.777 2.184 2.797-.734 4.984-2.918 5.715-5.715.73-2.797-.102-5.77-2.184-7.777zm0 0M472.559 306.418c-4.387-.52-8.363 2.617-8.879 7.008-5.262 43.836-44.934 75.195-88.801 70.191-25.836-3.004-48.566-18.465-60.848-41.395l106.672-106.664c4.703-4.703 7.246-11.148 7.016-17.797l-2.609-75.672c33.785-8.164 56.918-39.297 54.98-74-1.934-34.703-28.387-63.07-62.871-67.422-34.484-4.352-67.152 16.551-77.652 49.684l-82.07-2.824c-6.66-.273-13.125 2.27-17.809 7.008l-232.672 232.672c-9.355 9.383-9.355 24.563 0 33.945l147.078 147.078c9.371 9.371 24.566 9.371 33.938 0l114.215-114.215c21.27 35.027 62.438 52.676 102.473 43.941 40.035-8.738 70.102-41.934 74.848-82.637.254-2.109-.34-4.234-1.656-5.906-1.316-1.672-3.242-2.75-5.352-2.996zm-64.375-290.297c27.688.059 51.172 20.344 55.266 47.727 4.09 27.383-12.445 53.645-38.906 61.793l-1.73-50.055c-.461-12.594-10.559-22.691-23.148-23.16l-43.289-1.488c8.617-21.035 29.078-34.785 51.809-34.816zm-231.465 440.801c-3.125 3.121-8.188 3.121-11.313 0l-147.07-147.082c-1.504-1.5-2.348-3.535-2.348-5.66 0-2.121.844-4.16 2.348-5.66l232.672-232.672c1.574-1.559 3.719-2.402 5.934-2.336l79.535 2.738c-.16 1.941-.293 3.887-.293 5.871.004 6.652.934 13.273 2.758 19.672-1.355.922-2.637 1.953-3.824 3.086-12.5 12.496-12.5 32.762-.004 45.258 12.496 12.5 32.762 12.5 45.258 0 12.496-12.496 12.496-32.762-.004-45.258-6.98-6.719-16.617-9.93-26.234-8.742-1.238-4.57-1.895-9.281-1.949-14.016 0-1.793.102-3.57.27-5.32l46.656 1.598c4.203.145 7.578 3.52 7.723 7.723l4.902 142.184c.074 2.219-.773 4.367-2.344 5.934zm168.719-349.523c1.77 3.156 3.77 6.172 5.984 9.027 1.727 2.344 4.59 3.57 7.48 3.191 2.887-.375 5.344-2.293 6.41-5.004 1.066-2.707.574-5.785-1.281-8.027-1.184-1.523-2.113-3.203-3.129-4.801 5.781 1.164 10.453 5.414 12.156 11.059 1.707 5.645.168 11.77-4.004 15.941-6.328 6.047-16.297 6.047-22.625 0-5.848-5.797-6.281-15.105-.992-21.418zm0 0"/></svg>