<svg xmlns="http://www.w3.org/2000/svg" viewBox="0 0 512 512" enable-background="new 0 0 512 512"><path fill="#FFDB6F" d="M391.578 140.431v51.155h-51.155v-51.155z"/><path d="M303.41 98.875c3.842 7.697-4.739 15.64-12.117 11.221l-29.966-17.985c-2.725-1.633-6.126-1.633-8.839 0l-29.979 17.985c-7.378 4.419-15.947-3.523-12.104-11.221l38.818-77.623c3.167-6.335 12.203-6.335 15.37 0l38.817 77.623z" fill="#31CCC9"/><path d="M256.907 429.132c20.992 0 38.02 17.027 38.02 38.02 0 21.005-17.027 38.02-38.02 38.02-21.005 0-38.02-17.015-38.02-38.02.001-20.993 17.015-38.02 38.02-38.02z" fill="#E4F5F4"/><path d="M166.849 206.637c5.168 5.181 8.372 12.338 8.372 20.231 0 15.812-12.804 28.616-28.604 28.616-7.906 0-15.051-3.204-20.231-8.372-5.181-5.181-8.385-12.338-8.385-20.244 0-7.894 3.204-15.051 8.385-20.231 5.181-5.168 12.325-8.372 20.231-8.372 7.906-.001 15.051 3.203 20.232 8.372z" fill="#F27258"/><path d="M392.788 123.93h-51.161c-6.441 0-11.662 5.221-11.662 11.662v51.161c0 6.441 5.221 11.662 11.662 11.662h13.918v6.138c0 23.648-19.239 42.887-42.887 42.887-16.35 0-31.323 5.969-42.886 15.827v-158.048l16.733 10.038c3.269 1.962 6.876 2.923 10.454 2.922 4.956 0 9.858-1.844 13.731-5.43 6.67-6.177 8.419-15.79 4.354-23.92l-38.816-77.633c-3.454-6.907-10.398-11.197-18.12-11.196-7.721 0-14.662 4.292-18.115 11.197l-38.816 77.633c-4.066 8.131-2.317 17.744 4.353 23.92 6.671 6.177 16.39 7.185 24.185 2.508l16.733-10.038v222.974c-11.716-10.475-27.162-16.859-44.078-16.859-23.648 0-42.887-19.238-42.887-42.887v-7.867c16.536-5.014 28.611-20.393 28.611-38.545 0-22.207-18.067-40.274-40.274-40.274s-40.274 18.067-40.274 40.274c0 18.152 12.074 33.531 28.611 38.545v7.867c0 36.51 29.702 66.212 66.212 66.212 23.648 0 42.887 19.238 42.887 42.886 0 1.835.436 3.566 1.192 5.111v31.372c-21.785 5.263-38.022 24.91-38.022 48.289 0 27.396 22.288 49.683 49.684 49.683 27.395 0 49.683-22.288 49.683-49.683 0-23.379-16.235-43.026-38.021-48.289v-100.377c0-23.648 19.238-42.886 42.886-42.886 36.508 0 66.212-29.702 66.212-66.212v-6.138h13.919c6.441 0 11.662-5.221 11.662-11.662v-51.161c0-6.442-5.221-11.663-11.663-11.663zm-261.915 98.107c0-9.346 7.603-16.949 16.949-16.949s16.949 7.603 16.949 16.949c0 9.345-7.603 16.949-16.949 16.949-9.346 0-16.949-7.604-16.949-16.949zm95.879-132.202l31.359-62.716 31.358 62.716-20.939-12.562c-3.214-1.927-6.817-2.891-10.419-2.891-3.604 0-7.207.964-10.421 2.891l-20.938 12.562zm57.717 372.482c0 14.534-11.824 26.358-26.358 26.358-14.535 0-26.36-11.824-26.36-26.358s11.825-26.36 26.36-26.36c14.533 0 26.358 11.825 26.358 26.36zm96.657-287.226h-27.836v-27.836h27.836v27.836z" fill="#201F2E"/></svg>