<svg xmlns="http://www.w3.org/2000/svg" viewBox="0 0 58 58" enable-background="new 0 0 58 58"><path d="M51 49.957c0-3.038-1.717-5.816-4.434-7.174l-9.552-4.776c-1.234-.617-2.014-1.879-2.014-3.259v-3.748c.268-.305.576-.698.904-1.162 1.302-1.838 2.286-3.861 2.969-5.984 1.225-.377 2.127-1.509 2.127-2.854v-4c0-.88-.391-1.667-1-2.217v-5.783s1.187-9-11-9c-12.188 0-11 9-11 9v5.783c-.609.55-1 1.337-1 2.217v4c0 1.054.554 1.981 1.383 2.517.999 4.352 3.617 7.483 3.617 7.483v3.655c0 1.333-.728 2.56-1.899 3.198l-8.921 4.867c-2.577 1.405-4.18 4.106-4.18 7.041v3.239c0 2.761 9.85 5 22 5s22-2.239 22-5v-3.043z" fill="#88C057"/></svg>